<?xml version="1.0" encoding="UTF-8"?> <!-- Generator: Adobe Illustrator 16.0.0, SVG Export Plug-In . SVG Version: 6.00 Build 0) --> <svg xmlns="http://www.w3.org/2000/svg" xmlns:xlink="http://www.w3.org/1999/xlink" version="1.1" id="Layer_1" x="0px" y="0px" width="900px" height="900px" viewBox="0 0 900 900" xml:space="preserve"> <g> <g> <path fill="#BCC3C8" d="M356.696,643.646c1.063,0.858,3.69,1.323,3.626,3.002c-0.04,1.116-1.087,2.084-1.607,3.034 c-0.44,0.828-0.719,1.695-1.022,2.603c-0.699,1.973-1.425,4.026-2.284,6.022c-0.631,1.453-1.612,2.742-2.492,4.121 c-0.844,1.334-1.484,2.892-2.448,4.152c-1.21,1.57-3.708,2.432-5.333,3.531c-1.442,0.977-2.593,2.036-3.389,3.584 c-0.759,1.471-1.432,2.815-2.549,4.065c-1.453,1.676-2.687,3.785-4.494,5.113c-6.347,4.674-11.593,10.684-17.125,16.256 c-1.097,1.104-2.184,2.486-3.129,3.74c-0.852,1.133-1.667,2.342-2.867,3.151c-1.242,0.82-1.614,1.72-2.33,3.035 c-0.758,1.367-1.414,2.668-2.41,3.912c-0.771,0.937-1.575,1.873-2.242,2.844c-0.458,0.701-0.937,1.812-1.715,2.127 c-0.903,0.402-1.526-0.571-2.51-0.375c-1.303,0.285-1.669,1.363-1.994,2.416c-0.396,1.308-0.698,2.521-1.444,3.701 c-0.73,1.146-1.639,2.234-2.31,3.396c-0.255,0.444-0.514,1.784-0.964,2.026c-1.024,0.582-0.975-1.188-1.233-1.815 c-0.85-2.129-2.071,1.668-2.786,2.319c-1.708,1.604-3.234,3.033-4.424,5.144c-1.27,2.266-3.125,4.486-5.162,6.131 c-1.115,0.896-2.295,1.674-3.459,2.484c-1.058,0.69-1.993,1.647-3.22,2.014c-1.306,0.397-2.03,0.447-3.159,1.315 c-1.246,0.976-2.628,2.093-3.643,3.3c-3.542,4.155-5.805,9.291-9.899,12.922c-1.221,1.069-2.627,2.651-3.954,0.813 c-1.049-1.457-2.904-3.616-3.39-5.338c-0.264-0.934,0.092-1.737,0.507-2.555c0.646-1.225,0.925-1.488,2.284-1.471 c1.963,0.024,4.072,0.598,5.732-0.562c0.93-0.656,1.817-1.272,2.467-2.256c0.631-0.932,1.256-1.98,1.993-2.883 c1.269-1.566,3.198-3.002,3.502-5.084c0.265-1.805-2.155-4.332-3.642-5.23c-1.417-0.862-3.462-1.889-5.058-0.914 c-1.077,0.658-1.244,2.189-2.531,2.562c-1.599,0.451-3.772-0.431-3.788,1.955c-0.013,0.957,0.022,1.584-0.877,1.889 c-0.916,0.312-1.518,0.068-1.824,1.199c-0.163,0.612-0.32,2.139-0.104,2.744c0.248,0.787,0.966,1.049,1.083,1.92 c0.21,1.653-0.78,2.321-1.834,3.287c-0.53,0.469-0.796,1.059-1.251,1.559c-0.14,0.164-0.468,0.236-0.632,0.371 c-0.202,0.178-0.449,0.701-0.625,0.932c-0.614,0.836-1.33,1.593-1.925,2.422c-1.142,1.615-2.309,2.052-4.092,2.791 c-2.501,1.046-5.01,1.89-7.377,3.242c-1.641,0.961-3.188,2.107-4.829,3.088c-1.882,1.127-3.621,2.371-5.326,3.752 c-1.358,1.109-2.735,2.33-4.32,3.066c-0.943,0.436-2.015,0.711-2.748,1.428c-0.767,0.773-0.942,1.648-1.74,0.217 c-0.557-1.004-0.727-1.766-1.993-1.688c-0.365,2.932-2.423,3.488-4.536,5.125c-0.731,0.562-1.421,1.443-2.404,1.578 c-1.589,0.219-1.615-1.566-2.483-2.402c-0.748-0.729-2.083,0.012-2.925,0.644c-1.07,0.782-2.046,1.608-3.158,2.366 c-1.225,0.843-2.415,1.584-3.112,2.92c-0.751,1.41-1.269,2.888-2.234,4.214c-1.202,1.647-4.799,7.469-7.334,6.452 c-0.839-0.33-0.981-1.35-1.802-1.754c-0.992-0.477-2.251-0.262-3.093-1.166c-0.693-0.76,0.021-1.545-0.337-2.364 c-0.603-1.304-1.226,0.231-1.697,0.754c-0.648,0.766-1.231,0.575-2.213,0.604c-3.013,0.109-5.304,0.795-7.63,2.752 c-2.089,1.763-3.735,3.953-4.674,6.537c-0.859,2.369-2.43,3.445-4.515,4.762c-2.032,1.316-3.56,2.398-6.117,1.636 c-1.148-0.347-2.384-0.646-3.037,0.619c-0.355,0.666-0.396,1.838-1.253,2.239c-1.993,0.953-3.122-2.137-4.391-2.602 c-2.158-0.81-4.389,0.539-6.101,1.754c-0.834,0.594-1.703,1.166-2.553,1.727c-0.955,0.621-2.029,1.164-2.757,2.044 c-0.847,1.032-1.602,2.129-2.597,3.032c-1.01,0.89-4.042,2.244-5.353,1.269c-0.546-0.4-0.324-2.933-1.45-2.336 c-0.962,0.496-0.328,2.639-1.933,2.895c-1.518,0.238-2.465-2.322-3.21-3.25c-1.05-1.299-2.537-2.129-3.5-3.483 c-1.015-1.416-1.576-3.246-2.312-4.826c-0.653-1.377-1.442-2.965-1.87-4.406c-0.363-1.246-0.471-3.449-0.093-4.703 c0.362-1.225,1.705-1.334,2.322-2.342c0.739-1.195,0.609-3.043,0.695-4.435c0.088-1.35,0.7-2.106,1.685-3.016 c0.966-0.875,2.011-1.67,2.996-2.551c0.844-0.746,2.004-2.574,3.266-1.541c0.706,0.559,1.079,2.955,1.947,1.117 c0.426-0.879,0.266-1.888,0.632-2.771c0.932-2.192,2.876,0.521,4.096-1.17c0.797-1.098,0.307-1.146-0.554-1.832 c-0.894-0.688-1.327-1.772-1.605-2.809c-0.074-0.312-0.454-0.896-0.234-1.25c0.203-0.344,0.76-0.207,1.038-0.496 c1.729-1.787-1.675-3.381-1.932-4.914c-0.143-0.891,0.923-2.004,1.448-2.625c0.701-0.859,1.138-1.473,1.548-2.529 c0.356-0.881,1.315-1.848,1.381-2.828c0.049-1.102-0.967-2.438-1.296-3.485c-0.238-0.857,0.092-2.457-0.355-3.166 c-0.418-0.693-1.999-1.109-2.627-1.638c-0.75-0.631-1.375-1.436-1.648-2.396c-0.386-1.34,0.044-1.377,1.07-2.152 c1.305-0.983,0.312-1.369-0.449-2.434c-0.727-0.994-1.088-2.332-1.563-3.467c-0.358-0.908-0.896-1.806-0.625-2.841 c0.29-1.08,1.625-1.842,2.444-2.524c0.775-0.625,1.294-1.474,2.042-2.072c1.088-0.875,1.222,0.051,2.373,0.236 c1.391,0.242,2.332-1.207,2.992-2.197c0.877-1.305,1.577-2.148,2.846-3.139c0.801-0.654,0.652-1.138,0.683-2.144 c0.048-2.324,2.529-0.457,3.743-1.844c1.643-1.879,3.023-4.551,5.243-5.82c1.779-1.008,4.332-0.035,5.877,0.935 c2.237,1.403,4.419,1.701,7.092,1.985c1.022,0.101,1.976,0.339,2.838-0.407c0.514-0.449,0.823-1.097,1.329-1.552 c0.522-0.467,1.164-0.741,1.704-1.217c1.115-1.045,2.011-2.377,2.718-3.715c0.442-0.893,1.084-1.797,1.431-2.705 c0.445-1.137-0.033-1.516-0.432-2.572c-0.846-2.332,0.557-4.914,1.718-6.842c1.215-1.998,0.741-4.434,2.229-6.334 c1.454-1.842,4.772-0.205,6.831-1.012c2.008-0.793,4.063-2.478,4.72-4.578c0.438-1.387,0.084-5.018,1.957-5.381 c1.692-0.34,4.119,2.276,5.467,3.096c0.957,0.572,2.24,0.59,3.202,0.021c0.99-0.574,1.208-1.5,0.125-2.152 c-1.001-0.602-2.345-0.402-3.372-0.922c-0.925-0.443-1.681-1.16-2.428-1.797c-1.644-1.408-4.155-1.599-6.28-1.681 c-1.128-0.065-2.205,0.041-3.285-0.241c-0.79-0.205-2.233-0.373-2.82-0.976c-1.53-1.551,0.398-4.057,0.764-5.584 c0.218-0.963,0.379-2.045,0.194-3.055c-0.295-1.75-1.161-3.225-0.879-5.092c0.282-1.742,1.384-3.086,2.81-4.074 c2.45-1.709,3.803-3.766,4.736-6.559c0.84-2.484,1.385-5.111,2.082-7.644c0.234-0.883,0.71-1.635,0.997-2.492 c0.619-1.875-0.171-4.006-0.974-5.659c-0.319-0.669-0.963-1.478-1.124-2.22c-0.279-1.158,0.346-2.182,1.038-3.033 c0.85-1.071,1.649-2.301,1.986-3.674c0.317-1.229,1.248-2.549,1.196-3.826c-0.068-1.344-1.523-2.018-2.494-2.784 c-0.988-0.756-1.601-1.89-2.722-2.402c-0.856-0.385-2.042-0.52-2.633-1.381c-0.388-0.555-0.613-1.791-0.847-2.447 c-0.081-0.25-0.297-0.863-0.259-1.141c0.104-0.646,0.401-0.426,0.771-0.859c0.838-1.012-0.028-1.934-0.244-3.109 c-0.369-1.969-0.108-4.102,0.296-6.03c0.211-1.021,0.284-2.002,0.385-3.035c0.176-1.535,0.475-3.322,0.926-4.801 c0.944-3.111,4.01-5.101,5.899-7.435c1.172-1.43,0.706-2.487,1.157-4.1c0.343-1.211,1.14-1.639,2.199-2.238 c1.344-0.766,3.203-3.217,4.797-2.154c0.58,0.38,1.18,1.865,2.152,1.22c1.513-0.988-0.531-2.172-0.545-2.875 c-0.039-1.002,2.051-1.541,2.827-1.574c1.352-0.057,1.062,1.521,2.074,1.328c0.043-0.689-0.159-1.697,0.159-2.342 c0.443-0.904,1.474-0.685,2.343-0.713c1.489-0.062,1.223-0.787,2.274-1.488c1.077-0.724,1.688,0.676,1.795,1.635 c0.077,0.728-0.907,2.312-0.399,2.844c0.849,0.882,2.226-1.062,2.612-1.573c0.289-0.429,0.657-0.783,0.938-1.23 c0.193-0.303,0.409-1.008,0.67-1.209c1.131-0.916,2.653,1.273,3.366,1.955c0.764,0.707,1.84,1.402,1.863,2.453 c0.006,0.652-0.756,2.416,0.644,1.91c0.641-0.226,1.036-1.562,1.973-0.742c0.697,0.613,0.028,1.801,1.39,1.707 c0.041-0.584,0.016-1.187,0.057-1.762c0.625-0.355,1.626,0.157,2.172-0.181c0.398-0.242,0.3-1.854,1.222-1.127 c0.688,0.541,0.218,1.566,1.04,2.027c0.818,0.483,1.825-0.045,2.641,0.672c0.698,0.621,0.721,1.473,0.538,2.332 c-0.163,0.668-0.595,1.973,0.807,1.473c1.229-0.414,0.3-1.926,1.647-2.147c0.828-0.144,2.013,0.104,2.837,0.229 c1.066,0.17,1.614,0.42,2.247,1.433c0.413,0.651,0.81,1.838,1.579,2.225c0.754,0.383,1.53,0.152,1.798-0.475 c0.204-0.453-0.098-1.104,0.381-1.5c1.148-0.931,2.052,0.389,2.323,1.288c0.232,0.775,0.282,2.111,1.439,1.888 c1.398-0.248,0.239-2.396,0.925-2.992c0.585-0.492,2.435,0.219,2.999,0.428c0.789,0.261,1.534,1.174,2.245,0.789 c0.729-0.422,0.502-1.459,0.786-2.084c0.355-0.83,1.241-1.396,2.155-1.498c1.812-0.242,0.576,1.363,1.53,1.445 c0.112,0.008,0.241,0.02,0.363-0.004c-0.04-0.943,0.215-1.367,1.07-1.601c1.313-0.342,2.136-0.106,2.948-1.471 c0.369-0.652,0.199-0.758,0.987-1.127c1.29-0.584,3.165-0.438,4.56-0.412c1.325,0.043,3.022,0.531,4.096,1.389 c0.903,0.722,0.872,1.769,1.966,2.3c0.907,0.442,2.555,0.879,3.49,0.399c0.364-0.16,0.577-0.586,0.888-0.727 c0.555-0.252,1.258-0.062,1.827-0.176c1.622-0.322,2.591-1.377,3.581-2.554c1.435-1.719,3.272-2.633,5.344-3.096 c1.062-0.246,2.071-0.369,3.091-0.674c1.125-0.338,2.017-0.955,3.051-1.424c2.354-1.07,4.951-0.947,7.508-0.916 c1.757,0.024,3.157,0.272,4.686,1.131c1.291,0.721,3.097,0.746,4.582,0.424c1.504-0.316,3.13-1.021,4.483-1.697 c1.267-0.647,2.396-1.465,3.694-2.061c1.109-0.51,2.268-0.883,3.344-1.515c0.711-0.411,2.071-1.686,2.93-1.543 c0.723,0.111,1.41,1.438,1.965,1.834c2.072,1.396,2.544-1.067,4.281-1.569c0.942-0.281,1.33-0.361,2.002,0.309 c0.62,0.621,0.938,1.347,1.752,1.67c0.771,0.299,1.815-0.012,2.253,0.861c0.335,0.637-0.329,2.055,0.12,2.576 c0.406,0.461,1.926,0.139,2.483,0.312c0.985,0.303,1.905,1.058,2.42,1.906c1.423,2.369,0.815,5.305,1.15,7.967 c0.265,2.15,0.035,4.443,0.008,6.599c-0.031,2.204,0.122,4.338,0.093,6.543c-0.021,1.684-0.009,3.323-0.264,4.973 c-0.152,1.084-0.312,2.586,0.056,3.635c0.869,2.486,2.937,4.461,4.475,6.49c0.492,0.643,1.099,1.623,0.881,2.498 c-0.237,0.977-1.113,0.787-1.604,1.484c-0.886,1.254,0.957,1.062,1.713,1.245c0.756,0.183,2.287,0.867,2.224,1.88 c-0.085,1.051-1.75,0.684-1.729,1.795c0.02,1.092,1.854,1.616,2.463,2.416c1.153,1.532,1.231,3.961,2.078,5.674 c0.932,1.854,2.232,2.951,3.563,4.502C353.733,640.406,355.145,642.412,356.696,643.646z"></path> <path fill="#BCC3C8" d="M182.296,630.029c0.189,0.658-0.167,0.791-0.602,1.168c-1.087,0.938-1.687,2.559-2.477,3.762 c-0.721,1.094-0.688,2.605-0.284,3.826c0.407,1.19,1.141,2.27,1.632,3.43c0.468,1.072,1.486,2.326,1.124,3.543 c-0.153,0.553-0.588,0.959-0.759,1.508c-0.153,0.507-0.001,1.334-0.282,1.752c-0.694,1.06-1.715-1.122-1.994-1.575 c-0.759-1.197-1.726-2.293-2.431-3.527c-0.473-0.852-0.926-1.711-1.431-2.533c-0.387-0.631-0.896-1.278-1.092-2.004 c-0.378-1.406,0.774-2.563,0.81-3.981c0.014-0.97-0.025-1.98,0.04-2.959c0.055-0.906-0.025-1.97,0.347-2.812 c0.302-0.734,0.759-1.367,1.232-2.006c0.281-0.383,0.668-1.111,1.235-0.871c0.392,0.154,0.507,0.662,0.952,0.83 c0.499,0.17,1.067,0.057,1.581,0.205c0.481,0.141,0.91,0.291,1.267,0.625C181.571,628.789,182.138,629.504,182.296,630.029z"></path> <path fill="#BCC3C8" d="M178.48,685.057c0,0.021-0.017,0.035-0.017,0.035c-0.17,0.445-0.529,0.889-0.655,1.342 c-0.247,0.974-0.373,2.064-0.472,3.054c-0.06,0.702,0.034,1.385-0.079,2.063c-0.065,0.394-0.083,1.187-0.381,1.459 c-0.557,0.506-2.168-0.041-2.839-0.082c-0.67-0.035-1.307-0.088-1.897,0.24c-0.433,0.271-0.885,0.582-1.242,0.93 c-0.289,0.279-0.605,0.787-1.044,0.812c-0.578,0.029-0.843-0.68-0.974-1.15c-0.394-1.432,0.058-3.062,0.471-4.434 c0.469-1.535,0.645-3.09,1.438-4.535c0.255-0.469,0.476-0.75,1.009-0.82c0.682-0.076,0.979,0.271,1.561,0.521 c0.624,0.25,1.189-0.142,1.803-0.338c0.648-0.197,1.217-0.226,1.889-0.216c0.429,0.005,1.05-0.1,1.409,0.156 C178.887,684.377,178.709,684.717,178.48,685.057z"></path> </g> <g> <path fill="#F99D2A" d="M534.666,219.725c0.575,2.616-0.487,6.666-2.132,8.761c-0.693,0.891-1.717,1.557-2.747,1.982 c-0.752,0.309-1.831,0.338-2.372,0.954c0.839,0.412,1.438,0.7,1.285,1.749c-0.104,0.88-0.686,1.019-1.263,1.666 c-0.758,0.824-1.476,1.715-2.313,2.452c-0.548,0.506-1.052,1.531-1.688,1.902c-0.729,0.431-0.989-0.551-1.736,0.021 c-0.697,0.52-0.843,2.351-1.094,3.148c-1.297,4.262-3.841,7.764-6.095,11.56c-0.758,1.275-1.188,2.66-1.895,3.964 c-0.741,1.385-1.448,2.731-1.993,4.208c-0.457,1.226-1.259,2.124-1.824,3.291c-0.433,0.872-0.544,2.114-0.716,3.106 c0,0.03-0.018,0.055-0.018,0.082c-0.406,2.242-1.245,4.357-2.177,6.466c-0.969,2.156-1.437,3.773-1.591,6.16 c-0.095,1.948-0.259,3.99-0.077,5.956c0.331,3.47,1.146,6.877,1.377,10.353c0.195,3.167-0.343,6.298-0.678,9.43 c-0.188,1.747-0.149,3.522-0.176,5.289c-0.018,1.406-0.034,2.8-0.055,4.211c-0.018,1.172-0.029,2.356-0.047,3.516 c-0.018,1.313-0.078,1.983,0.806,2.973c0.833,0.893,1.689,1.653,2.427,2.649c1.539,2.057,3.146,4.213,3.613,6.716 c0.337,1.78,0.137,3.788,0.11,5.64c-0.021,1.544,0.234,3.249-0.714,4.541c-0.893,1.24-2.196,1.945-3.358,2.838 c-1.551,1.206-3.26,2.276-4.63,3.691c-1.063,1.136-1.41,2.548-2.007,3.952c-0.463,1.129-1.001,2.146-1.771,3.087 c-1.714,2.099-5.239,3.607-5.737,6.544c-0.183,1.064,0.217,2.063,0.626,3.012c0.459,1.082,0.703,2.169,1.066,3.277 c0.279,0.867,1.144,2.103,1.112,3.018c-0.03,1.059-1.521,1.999-2.188,2.779c-1.017,1.199-1.963,2.381-3.085,3.467 c-2.645,2.557-4.45,5.615-6.324,8.73c-1.082,1.795-2.155,3.512-3.426,5.198c-2.84,3.744-6.055,7.265-8.877,11.051 c-2.28,3.057-4.269,6.343-6.437,9.495c-1.939,2.79-4.375,5.207-5.697,8.369c-0.57,1.359-1.336,2.657-1.374,4.145 c-0.055,1.596,0.519,3.179-0.446,4.461c-0.508,0.692-0.617,1.061-0.594,1.959c0.065,1.533,1.191,2.305,1.482,3.619 c0.586,2.651-2.337,1.105-3.146,2.324c-1.002,1.558,2.165,2.146,2.754,2.567c-0.706,0.695-2.324,0.121-3.146,0.942 c-0.848,0.856,0.229,1.464,0.928,2.098c2.016,1.809,3.176,3.786,2.885,6.517c-0.159,1.462-0.487,2.886-0.721,4.347 c-0.144,0.797-0.259,1.721-0.509,2.361c0,0.01-0.318,0.2-0.373,0.364c-0.079,0.197,0.026,0.476-0.009,0.658 c-0.556,3.543-0.812,7.266-2.224,10.578c-0.729,1.705-1.562,3.377-2.246,5.074c-0.535,1.373-1.203,2.348-2.335,3.25 c-0.998,0.787-1.942,1.209-3.169,1.572c-1.305,0.377-2.527,0.95-3.923,0.932c-1.497-0.019-2.963,0.246-4.466,0.641 c-1.004,0.258-2.104,1.586-3.209,1.113c-1.088-0.447-0.618-1.467-0.648-2.334c-0.039-0.914,0.01-0.781-0.85-0.877 c-0.516-0.053-1.007,0.027-1.497,0.063c-1.612,0.132-3.251,0.334-4.747,0.888c-1.524,0.565-2.836,1.535-4.326,2.153 c-1.021,0.447-1.853,0.802-1.603,2.115c0.15,0.918,0.884,1.467,0.551,2.494c-0.888,2.707-3.644,4.664-5.731,6.43 c-3.081,2.556-1.794-2.403-3.998-1.86c-2.427,0.612,1.992,3.817-0.717,4.149c-1.509,0.188-0.975-0.465-1.488-1.35 c-0.648-1.082-1.917-0.234-2.494,0.469c-0.734,0.896-1.05,1.232-2.347,1.072c-0.954-0.099-1.835-0.679-2.549-1.316 c-0.521-0.469-0.819-1.021-1.087-1.649c-0.301-0.701-0.959-1.601-1.124-2.281c-0.333-1.437,0.926-1.09,1.371-1.969 c0.573-1.177-0.671-1.361-1.448-1.23c-0.812,0.143-2.333,0.656-2.82-0.346c-0.343-0.722,0.342-2.41,0.517-3.08 c0.381-1.58,0.831-3.068,1.128-4.646c0.25-1.393,0.817-2.682,1.079-4.067c0.333-1.808,0.521-3.627,0.641-5.476 c0.265-4.436,1.89-8.721,2.429-13.104c0.099-0.906,0.092-2.894,0.557-3.662c0.52-0.861,2.518-0.917,3.482-1.089 c0.95-0.171,1.745-0.295,0.679-1.126c-0.928-0.718-5.034-1.38-3.462-3.1c0.402-0.433,1.372-0.796,1.57-1.554 c0.291-1.229-0.75-0.521-1.337-1.087c-1.401-1.323,3.323-1.331,3.887-1.482c0.586-2.037-3.037-0.876-3.36-2.292 c-0.263-1.098,0.809-2.597,1.08-3.579c0.316-1.116,0.295-1.408,1.64-1.685c0.641-0.14,2.302-0.177,1.826-1.233 c-0.385-0.884-1.919-0.72-2.659-0.856c-0.997-0.18-1.106-0.848-0.17-1.33c0.708-0.364,1.651-0.146,1.341-1.405 c-0.146-0.6-0.771-1.32-1.231-1.785c-0.703-0.722-0.812-0.874-0.438-1.93c0.355-0.979,0.566-1.814,0.539-2.918 c-0.088-2.515,0.087-4.661,2.065-6.524c1.15-1.084,2.604-1.497,1.344-3.339c-0.802-1.188-2.519-1.602-1.331-3.447 c0.817-1.253,1.696-2.568,1.667-4.227c0.943,0.06,0.64,0.989,1.116,1.426c0.63,0.573,1.411-0.048,1.781-0.616 c0.334-0.511,0.647-1.492,0.339-2.123c-0.27-0.532-0.975-0.717-1.086-1.341c-0.081-0.396,0.249-1.275,0.368-1.662 c0.353-1.288,1.149-2.354,1.903-3.422c0.3-0.442,0.442-0.79,0.875-1.093c0.294-0.188,0.967-0.188,1.151-0.364 c1.13-0.927-0.549-0.81-1.104-1.162c-0.602-2.249,4.366-0.232,3.864-2.005c-0.457-0.46-1.261-0.365-1.37-1.161 c-0.104-0.661,0.535-1.323,1.154-1.406c0.51-0.071,1.575,0.694,1.699-0.171c0.085-0.588-0.849-0.911-1.306-0.984 c-0.372-1.73,2.14-0.14,2.726-0.245c0.199-0.828-0.716-0.604-1.025-1.13c-0.245-0.397,0.006-1.177,0.062-1.587 c0.341,0.281,2.76,1.649,2.749,0.379c-0.023-0.856-1.557-0.701-1.84-1.411c-0.432-1.16,1.087-0.194,1.65-0.455 c1.187-0.565-0.688-0.676-0.844-1.149c-0.316-0.945,1.23-0.881,1.643-1.238c0.869-0.782-0.21-1.032-0.389-1.864 c-0.195-0.865,0.387-1.226,0.92-1.856c0.892-1.025,1.002-4.184,2.771-3.841c0.045,0.362,0.227,1.189,0.532,1.4 c0.598,0.414,1.17,0.094,1.265-0.542c0.169-1.135-1.338-1.805-0.512-3.036c0.334-0.484,0.888-0.705,1.205-1.316 c0.247-0.465,0.34-0.911,0.706-1.319c0.685-0.788,2.631-0.964,1.943-2.337c-0.301-0.624-1.592-0.693-1.716-1.164 c-0.22-0.907,1.456-0.639,1.903-0.632c0.852,0.011,1.383,0.134,1.979-0.452c0.592-0.59,0.992-1.605,1.408-2.352 c1.197-2.125,2.638-4.163,3.717-6.378c0.601-1.181,0.997-2.496,1.649-3.671c0.775-1.346,1.87-2.137,2.739-3.347 c0.807-1.135,1.282-2.48,1.996-3.667c1.294-2.135,2.355-4.419,3.633-6.58c0.979-1.674,1.867-3.169,2.502-4.994 c0.297-0.858,0.437-1.687,0.79-2.521c1.333-3.072,3.489-5.954,5.302-8.77c1.328-2.071,2.425-4.286,3.57-6.456 c0.758-1.411,1.202-2.981,1.91-4.418c0.63-1.294,1.549-2.419,2.305-3.645c0.388-0.667,1.665-2.147,1.623-2.931 c-0.008-0.909-1.271-0.856-0.994-1.627c0.284-0.754,1.861-0.807,2.369-1.458c0.604-0.776,0.448-2.03,1.48-2.538 c0.338-0.162,0.78,0.044,1.112-0.1c0.434-0.18,0.608-0.651,0.839-1.028c1.901-3.125,4.247-5.974,6.317-9.022 c1.986-2.935,3.441-6.381,4.744-9.651c1.238-3.148,1.925-6.401,2.967-9.594c0.789-2.405,2.743-4.927,2.94-7.457 c0.17-2.333-1.447-3.692-2.179-5.838c-0.453-1.345-0.174-2.576,0.644-3.702c0.729-1.005,1.42-1.189,2.368-1.793 c1.69-1.053,2.804-3.125,3.841-4.76c2.216-3.497,4.124-7.177,6.263-10.7c1.646-2.694,3.075-5.36,4.379-8.203 c1.145-2.504,1.762-4.761,1.797-7.511c0.016-1.068-0.114-2.293,0.146-3.313c0.291-1.176,1.271-2.38,2.022-3.287 c0.912-1.125,1.991-2.109,2.952-3.151c0.682-0.732,1.147-1.319,2.228-1.222c2.091,0.161,3.377,1.973,3.437,3.915 c0.02,1.155,0.021,2.38,0.896,3.24c0.627,0.598,2.265,1.253,2.996,0.513c0.689-0.688-0.02-1.868,1.005-2.267 c1.149-0.446,2.751,0.669,3.729,1.085C530.605,216.86,534.179,217.514,534.666,219.725z"></path> <g> <path fill="#81848A" d="M689.13,264.242c0.653-1.286,4.755-0.208,3.218-2.488c-0.457-0.674-1.642-0.823-2.271-1.253 c-0.717-0.487-0.984-1.149-1.093-2.024c-0.14-1.271,0.121-2.856-0.396-4.06c-0.418-1.003-1.431-1.349-2.37-1.732 c-1.303-0.528-2.29-1.441-2.865-2.737c-0.477-1.039-0.971-2.728-1.094-3.85c-0.122-1.104,0.166-2.174-0.182-3.211 c-0.82-2.539-3.204-1.146-4.122,0.623c-1.043,2.007,0.084,3.954,1.231,5.609c0.896,1.307,2.829,3.43,2.681,5.119 c-0.083,0.881-0.96,1.618-1.37,2.418c-0.439,0.889-0.793,1.496-1.474,2.146c-1.62,1.592-0.272,2.476,0.684,4.127 c0.609,1.029,1.222,2.113,1.717,3.195c0.643,1.472,0.733,3.062,1.474,4.509c0.586,1.162,1.517,1.729,2.377,2.666 c0.719,0.76,0.986,1.83,1.405,2.752c0.693,1.614,2.148,4.767,3.689,1.625c0.485-0.946,0.741-1.975,1.457-2.792 c0.543-0.616,1.134-0.902,1.314-1.782c0.369-1.737-0.949-3.555-1.941-4.845C690.366,267.143,688.244,265.953,689.13,264.242z"></path> <path fill="#81848A" d="M675.357,323.174c-2.19-1.131-3.941-2.837-6.354-3.399c-2.367-0.553-5.415-1.862-6.567-4.362 c-0.488-1.039-0.171-2.128-0.847-3.248c-0.562-0.925-1.633-1.941-1.636-3.125c3.17-0.203,2.607,3.219,3.873,5.288 c1.691,2.774,3.646,0.242,5.57-0.877c2.366-1.389,4.104-2.873,0.619-4.532c-2.384-1.133-6.181-1.832-7.473-4.27 c-1.499-2.779-0.938-6.104-2.348-8.822c-0.502-0.992-1.141-2.331-2.476-2.163c-1.269,0.169-1.815,1.87-2.591,2.634 c-0.752,0.741-2.075,1.72-2.967,0.995c-0.675-0.54-0.844-3.217-0.454-3.992c0.481-0.876,2.125-0.854,2.459-1.793 c0.49-1.382-2.166-2.706-2.87-3.658c-1.074-1.45-1.453-3.211-1.673-4.958c-0.298-2.273-0.882-5.453-0.327-7.782 c0.384-1.571,1.314-0.934,2.195-1.908c0.762-0.838,0.337-2.05-0.005-2.909c-0.193-0.507-0.449-1.126-0.797-1.583 c-0.508-0.683-1.525-1.63-2.131-2.267c-0.499-0.527-1.203-0.692-1.781-1.161c2.547-2.027,3.647,3.329,5.601,2.189 c2.497-1.474-1.04-4.676-2.132-5.556c-0.443-0.358-0.922-0.636-1.225-1.135c-0.451-0.798,0.005-0.994-0.115-1.701 c-0.127-0.794,0.026-0.672-0.552-1.26c-0.257-0.25-1.598-0.225-1.208-0.896c0.413-0.772,2.701,0.494,3.012-1.195 c0.164-0.914-1.281-1.042-1.99-1.782c-1.292-1.364-0.732-1.869,0.004-3.096c0.609-1.011,1.015-1.845,0.071-2.728 c-0.94-0.886-2.164-0.373-1.967-2.251c0.138-1.292,1.213-2.38,2.336-2.921c1.517-0.72,2.468-0.238,2.688-2.085 c0.186-1.426-0.324-2.695-1.678-3.152c-1.165-0.377-3.192-0.353-3.78,0.776c-0.441,0.816-0.153,3.1-2.047,2.232 c-2.199-1.002,2.967-3.602,2.487-5.498c-0.263-1.114-1.688-1.503-1.946-2.729c-0.261-1.178-0.039-2.785-0.093-3.978 c-0.129-2.777-2.162-3.764-3.077-6.239c-1.169-3.197-1.997-6.47-0.294-9.55c1.333-2.389,2.975-4.218,3.372-6.912 c0.227-1.539-0.28-6.146,1.349-6.907c3.689,4.827-1.049,8.895-1.814,13.459c-0.279,1.621,0.335,1.99,1.315,3.124 c0.878,0.997,1.408,1.826-0.261,2.26c-1.373,0.367-2.091-0.063-2.637,1.621c-0.344,1.107,0.02,2.338,0.6,3.314 c0.396,0.678,1.312,2.312,2.103,2.559c1.522,0.489,1.206-1.438,2.514-1.202c-0.062,2.453,1.737-0.079,2.148-0.41 c1.426-1.152,1.785,0.394,1.363,1.683c-0.146,0.459-0.633,0.823-0.688,1.295c-0.097,0.68,0.403,1.189,0.258,1.854 c-0.193,0.93-1.717,1.398-1.609,2.397c0.143,1.147,1.865,0.93,2.109,2.15c0.192,0.938-0.676,2.646,1.229,2.113 c0.476-0.131,0.27-0.815,1.029-0.957c0.759-0.122,1.082,0.26,1.558,0.762c0.821,0.885,1.198,2.345,1.819,3.395 c0.632,1.054,1.422,1.912,2.036,2.907c0.404,0.686,1.521,2.869,2.135,1.264c0.396-1.002-0.707-2.291-0.092-3.432 c0.653-1.227,2.239-1.821,2.847-0.358c0.583,1.393-0.61,2.683-1.05,3.812c-0.418,1.071-0.587,2.684-0.615,3.82 c-0.039,1.415,0.568,2.322,1.053,3.565c0.459,1.143,0.57,2.37,1.088,3.453c1.074,2.227,3.002,3.564,4.188,5.582 c0.48,0.799,0.695,2.699,1.722,1.414c0.654-0.817,0.449-2.714,1.005-3.705c0.575-1.087,1.657-1.686,1.933-2.927 c0.346-1.562-0.639-1.984-1.354-3.023c-2.098-3.023,1.127-3.854,3.152-5.325c2.085-1.499,1.751-3.576,3.086-5.48 c0.895-1.281,1.725-1.563,1.85-3.253c0.106-1.47,0.212-2.916,0.343-4.369c0.254-2.764,0.238-5.682,3.196-6.651 c2.163-0.71,5.495-1.381,6.302-3.746c0.285-0.828,0.419-3.063-0.803-3.115c-1.206-0.046-1.414,2.59-2.864,1.906 c-0.584-0.252-0.539-2.412-0.805-3.014c-0.303-0.675-0.919-0.213-0.57-1.259c0.126-0.37,1.276-1,1.592-1.232 c1.853-1.322,3.842-3.551,1.773-5.817c-1.154-1.267-2.364-0.871-3.813-1.191c-1.58-0.335-0.935-1.589-2.248-2.014 c-1.65-0.538-5.336,3.252-4.885,4.902c0.188,0.705,0.896,0.434,1.124,0.893c0.443,0.922-0.229,0.987-0.599,1.678 c-0.689,1.241-0.483,2.039-0.75,3.382c-0.314,1.496-1.137,1.174-2.247,1.99c-1.227,0.866-1.923,2.035-2.646,3.312 c-1.378,2.405-2.431,5.521-4.252,7.614c-2.116,2.421-4.004-1.196-4.988-2.924c-0.935-1.634-3.814-3.576-3.625-5.661 c2.394-0.05,3.119,4.212,5.157,4.316c1.519,0.082,1.04-1.741,0.923-2.686c-0.038-0.312-0.36-1.317-0.055-1.567 c0.766-0.619,0.682,0.491,1.021,0.728c2.456,1.691,2.932-2.836,3.761-4.482c0.688-1.376,1.713-1.044,2.828-1.998 c1.155-1.001,0.588-2.127,0.785-3.507c0.228-1.452,1.453-1.947,1.757-3.372c0.296-1.452-0.091-2.141,0.882-3.411 c0.383-0.494,0.896-0.892,1.198-1.508c0.229-0.479,0.17-1.091,0.519-1.482c0.026-0.034,0.062-0.05,0.081-0.067l-0.043-0.044 c-2.261-1.021-28.834-10.753-32.805-12.631c-0.812-0.398-2.848-0.894-3.781-0.478c-1.445,0.637,0.359,1.307,0.508,2.532 c-1.456,0.17-18.35-6.641-19.007-7.063c-1.499-0.976-0.363-2.608-1.438-3.936c-0.585-0.731-1.188-0.497-1.211-1.6 c-0.02-1.077,0.65-1.017,1.059-1.842c1.024-2.082-0.529-2.252-1.556-3.42c-1.341-1.506,1.312-5.466-2.354-5.399 c-1.226,0.027-2.221,1.039-2.957-0.348c-0.32-0.586,0.047-1.008-0.411-1.613c-0.321-0.425-0.954-0.736-1.432-0.936 c-1.37-0.557-1.704-0.771-2.68-1.92c-1.186-1.374-1.688-1.241-1.961,0.503c-0.311,2.04-0.717,1.421-1.705,0.162 c-0.67-0.839-1.769-1.04-2.527-1.851c2.685-0.274,3.547-4.343,0.45-3.317c-3.303,1.076-0.404,3.361-2.323,5.212 c-0.923,0.888-2.089,0.333-2.436,1.857c-0.235,0.975,0.335,1.9-0.176,2.834c-0.564,1.018-1.703,1.072-2.197,2.071 c-0.512,1.031-0.461,2.401-0.881,3.539c-2.67,0.478-57.908-24.65-61.477-25.729c-0.184,0.711-0.361,1.424-0.476,2.119 c-0.452,2.874-0.371,5.785-0.941,8.661c-0.518,2.674-1.618,5.161-2.394,7.75c-0.875,2.953-1.429,6.295-2.565,9.091 c-2.057,5.104-4.342,9.976-5.887,15.322c-0.84,2.925-1.767,5.926-2.769,8.796c-0.446,1.229-1.273,2.557-1.188,3.909 c0.096,1.779,1.545,2.355,2.742,3.472c0.9,0.843,1.56,1.829,2.321,2.837c0.727,0.988,2.109,1.888,3.311,2.167 c1.408,0.329,2.443,0.156,3.986,0.513c1.607,0.361,3.322,1.348,4.671,2.352c4.536,3.789,0.934,10.089-1.135,14.089 c-2.793,5.375-6.285,10.417-10.374,14.902c-2.866,3.142-5.326,6.163-7.202,10.084c-1.105,2.323-1.926,4.972-3.339,7.113 c-1.021,1.559-2.142,2.933-2.818,4.67c-0.267,0.69-0.448,1.402-0.622,2.124c-0.501,2.171-0.696,4.462-1.388,6.575 c-0.788,2.36-1.56,4.662-2.007,7.079c-0.571,2.989,0.362,5.32,1.168,8.19c0.754,2.712,1.504,5.926,1.174,8.758 c-0.291,2.471-0.132,5.4-0.773,7.802c-0.796,2.869-1.477,5.988-1.551,9.048c-0.002,0.035-0.002,0.068-0.004,0.108 c-0.04,3.082,2.021,5.393,3.635,7.821c1.545,2.345,3.097,4.704,4.643,6.936c0.018,0.03,0.018,0.04,0.034,0.058l0.018,0.009 c1.688,2.532-0.778,4.289-0.955,6.913c-0.098,1.604,0.098,3.238-0.063,4.841c-0.165,1.655-0.979,2.932-1.864,4.3 c-1.529,2.387-3.109,3.963-5.685,5.365c-1.266,0.69-1.733,0.981-2.114,2.379c-0.31,1.133-0.988,1.889-1.33,2.952 c-0.863,2.687,4.174,4.588,5.953,5.413c0.735,0.355,1.522,0.609,2.171,1.123c0.393,0.297,0.728,1.008,1.138,1.232 c0.396,0.192,0.771,0.273,1.168,0.278c1.359,0.019,2.699-0.915,3.545-1.872c0.851-0.957,1.996-1.948,2.733-2.965 c0.854-1.167,0.605-2.853,0.921-4.252c0.603-2.751,2.7-5.207,4.675-7.28c1.293-1.365,4.715-3.003,4.999-5.065 c0.2-1.405-2.964-4.226-1.52-5.537l-0.016-0.008c0.12-0.112,0.261-0.209,0.452-0.301c0.873-0.389,2.664,0.221,3.557,0.328 c1.634,0.206,2.24,0.021,3.428-1.225c0.968-1.028,1.562-2.351,2.183-3.628c1.028-2.127,2.304-3.654,3.861-5.407 c2.278-2.579,4.019-4.476,7.627-5.258c4.965-1.078,8.879,0.453,11.969,4.313c0.984,1.218,1.589,2.848,2.677,3.956 c1.394,1.449,2.159,0.676,3.529-0.662c1.396-1.342,2.208-2.221,4.25-1.648c1.534,0.425,3.7,1.426,4.454,2.892 c0.763,1.483,0.401,2.226,2.633,2.04c4.466-0.362,9.165-6.222,7.658-10.861c-0.215-0.657-0.777-0.893-1.115-1.418 c-0.389-0.595-0.735-1.55-1.039-2.218c-0.536-1.16-1.139-2.218-1.684-3.361c-0.547-1.153-0.879-2.155-1.988-2.829 c-1.186-0.714-2.735-1.332-4.054-2.038c-2.203-1.175-6.001-2.454-6.381-5.478c-0.217-1.795,1.198-1.415,2.141-0.407 c1.052,1.164,1.686,2.688,2.893,3.739c2.266,1.989,5.557,0.63,7.688,3.189c1.866,2.247,2.184,5.434,5.599,6.257 c1.505,0.346,3.138-0.145,4.557-0.543c0.792-0.233,3.083-1.376,3.861-0.706c0.73,0.63,0.117,3.011,0.029,3.845 c-0.209,1.921-0.34,3.364,0.639,4.996c0.741,1.246,1.262,2.962,2.21,3.989c1.136,1.268,2.625,0.707,4.184,0.173 c2.049-0.714,7.723-0.879,7.679-3.842c-0.025-1.295-1.324-2.694-2.233-3.58c-0.729-0.716-2.63-1.658-2.812-2.728 c-0.259-1.317,1.521-1.749,1.211-3.251c-0.231-1.105-1.589-2.014-2.529-2.59c-1.314-0.806-2.766-1.113-3.797-2.345 c-0.533-0.649-1.98-3.112-0.384-3.091c1.207,0.007,1.389,2.521,2.22,3.257c0.931,0.805,2.309,0.655,3.389,1.03 c1.646,0.604,3.042,4.987,4.917,4.37c0.935-0.314,1.583-3.108,1.758-3.953c0.352-1.795,0.627-3.078,1.717-4.678 c1.57-2.279,5.217-3.339,4.53-6.619c-0.257-1.309-1.062-2.465-1.326-3.836c-0.294-1.415-0.737-2.902-0.979-4.395 c-0.074-0.501-1.114-5.284-0.353-5.669c0.851-0.431,2.235,2.823,2.483,3.494c0.988,2.737,2.041,5.97,2.026,8.898 c-0.005,2.441-1.425,4.221-1.635,6.5c-0.25,2.45,0.203,4.78,0.169,7.193c-0.032,2.407-0.089,4.18,1.02,6.294 c1.662,3.097,2.539,6.529,7.086,5.767c1.861-0.306,2.039-2.007,1.865-3.834c-0.095-1.156-0.772-3.26,0.022-4.37 c0.729-0.989,2.649-0.989,3.769-0.94c1.865,0.077,3.729,1.041,5.546,0.394c1.669-0.577,2.975-2.087,4.55-2.875 c3.109-1.546,7.611-2.507,10.437-0.223c2.513,2.035,4.783,4.048,7.342,5.952c1.05,0.789,2.044,1.753,3.384,1.999 c1.707,0.332,2.887,0.321,4.527,1.234c2.268,1.25,4.158,3.135,6.453,4.31c1.99,1.012,6.181,1.288,5.055-2.103 C680.457,324.033,677.226,324.142,675.357,323.174z"></path> <path fill="#81848A" d="M581.33,351.075c-0.236-0.286-0.562-0.36-0.888-0.541c-0.803-0.458-1.396-1.208-2.018-1.87 c-0.584-0.622-0.727-0.951-1.515-0.406c-0.264,0.181-0.6,0.353-0.732,0.67c-0.105,0.244,0.039,0.792-0.205,0.992 c-0.427,0.338-0.336-0.509-0.367-0.828c-0.076-0.583-0.104-1.172-0.252-1.73c-0.999-3.765-5.144-4.423-8.178-5.743 c-0.748-0.315-1.306-0.802-1.954-1.273c-0.647-0.453-1.443-0.816-2.022-1.345c-0.392-0.367-0.721-0.921-0.971-1.386 c-0.203-0.329-0.504-1.286-0.836-1.475c-0.656-0.369-0.981,0.788-1.192,1.193c-0.292,0.531-0.716,0.783-1.188,1.13 c-0.679,0.472-1.077,0.821-1.209,1.649c-0.147,0.88-0.352,1.769-0.511,2.667c-0.156,1.009-0.36,1.965-0.631,2.944 c-0.235,0.848-0.6,1.635-0.842,2.471c-0.244,0.82-0.146,1.144,0.456,1.789c0.562,0.58,1.277,0.916,1.831,1.448 c1.107,1.092,0.972,2.897,2.206,3.877c0.782,0.619,1.487,0.697,2.426,0.894c1.243,0.257,2.411,0.52,3.618,0.888 c1.101,0.329,2.105,0.863,3.188,1.188c0.787,0.212,1.633,0.155,2.442,0.166c1.721,0.023,3.424,0.291,5.146,0.17 c0.621-0.044,1.293-0.113,1.864-0.328c0.675-0.237,0.797-0.42,0.993-1.062c0.434-1.41,1.875-0.943,2.723-1.901 c0.849-0.966-0.102-2.257-0.666-3.112C581.786,351.874,581.604,351.407,581.33,351.075z"></path> <path fill="#81848A" d="M551.784,340.428c-0.475-0.156-0.891-0.02-1.298-0.335c-0.407-0.292-0.621-0.749-0.985-1.076 c-0.28-0.254-0.44-0.333-0.821-0.33c-0.561,0.011-0.728,0.27-0.956,0.709c-0.268,0.518-0.733,0.262-1.178,0.458 c-0.553,0.259,0.178,0.868,0.479,1.006c0.337,0.133,0.739,0.096,1.048,0.333c0.313,0.231,0.352,0.68,0.708,0.87 c0.387,0.199,0.755,0.531,1.189,0.627c0.61,0.138,0.619-0.503,1.068-0.739c0.356-0.189,1.025-0.064,1.271-0.387 C552.643,341.155,552.188,340.552,551.784,340.428z"></path> <path fill="#81848A" d="M547.527,337.295c0.197,0.046,0.466,0.123,0.663,0.035c0.259-0.117,0.43-0.502,0.577-0.716 c0.366-0.503,0.772-0.893,1.188-1.332c0.367-0.382,0.715-0.756,1.199-0.97c0.407-0.188,0.875-0.315,1.203-0.665 c0.275-0.276,0.132-0.631-0.229-0.786c-0.463-0.198-0.911-0.205-1.3-0.537c-0.485-0.404-0.862-0.745-1.085-1.346 c-0.15-0.372-0.231-0.788-0.418-1.15c-0.269-0.555-1.162-0.416-1.375,0.111c-0.136,0.343,0.01,0.546-0.323,0.834 c-0.347,0.302-0.763,0.521-1.112,0.843c-0.198,0.161-0.363,0.317-0.632,0.396c-0.305,0.074-0.765-0.037-0.988,0.25 c-0.268,0.358,0.004,0.624,0.277,0.808c0.349,0.216,0.594,0.534,0.84,0.864c0.228,0.288,0.369,0.604,0.228,0.954 c-0.203,0.527-0.598,0.284-1.011,0.421c-0.348,0.098-0.595,0.449-0.319,0.745c0.338,0.366,1.044,0.385,1.489,0.609 C546.793,336.854,547.091,337.204,547.527,337.295z"></path> <path fill="#81848A" d="M710.771,246.177c-2.322-1.459-2.944-3.853-4.197-6.172c-0.389-0.72-1.122-1.557-2.085-1.182 c-0.806,0.304-0.629,1.288-1.138,1.906c-0.758,0.925-1.561,0.896-1.662,2.229c-0.085,1.01,0.11,1.896,0.236,2.84 c0.117,0.827-0.136,1.697,0.113,2.515c0.271,0.855,1.186,1.329,1.436,2.143c0.288,0.953-0.658,1.604-1.013,2.349 c-1.021,2.197,1.612,2.305,1.675,4.191c0.036,1.039-0.533,1.062-0.871,1.884c-0.374,0.92,0.056,1.717,0.642,2.449 c0.88,1.087,2.078,2.972,3.547,3.194c0.506,0.08,1.076,0.023,1.59-0.005c0.152-0.833-0.933-1.419-1.451-1.913 c-0.625-0.606-1.137-1.319-1.584-2.074c-1.256-2.117,0.949-2.033,1.427-3.683c0.278-0.961-0.057-1.539-0.208-2.439 c-0.188-0.961-0.041-2.122-0.07-3.074c-0.076-1.983,1.164-2.808,3.033-2.869c0.567-0.027,2.247,0.452,2.65,0.01 C713.698,247.55,711.318,246.529,710.771,246.177z"></path> </g> <path fill="#F99D2A" d="M502.552,365.47c0.372,1.185-1.212,1.759-1.851,2.567c-0.376,0.481-0.675,1.674-1.52,1.611 c-0.722-0.053-0.812-1.148-0.983-1.714c-0.374-1.196-0.273-3.392,1.017-4.05C500.282,363.334,502.196,364.348,502.552,365.47z"></path> <path fill="#F99D2A" d="M498.533,375.596c0.032,0.233,0.062,0.471,0.062,0.714c-0.013,0.841-0.266,1.789-0.466,2.509 c-0.604,2.328-2.382,3.839-3.675,5.771c-3.724,5.58-6.664,11.668-10.539,17.154c-2.132,3.009-5.085,5.39-7.259,8.391 c-1.192,1.642-3.272,5.222-5.583,4.99c-0.039-1.072-0.019-2.061,0.364-3.003c0.509-1.198,1.279-2.232,1.71-3.454 c0.928-2.621,2.817-4.923,4.521-7.158c1.718-2.269,3.569-4.438,5.27-6.725c1.966-2.609,3.8-5.325,5.764-7.946 c1.497-1.99,2.645-4.098,3.751-6.296c0.291-0.579,0.608-1.094,0.977-1.566c0.367-0.462,0.786-0.874,1.299-1.245 C495.361,377.312,498.115,373.478,498.533,375.596z"></path> <path fill="#F99D2A" d="M467.161,416.014c0,0,0,0,0-0.008c0.071-0.317,0.173-0.787,0.373-0.858 c0.511-0.198,0.755,1.515,0.68,1.876c-0.291,1.177-1.719,1.158-2.291,2.051c-0.308,0.462-0.054,1.302-0.409,1.688 c-0.261,0.269-1.052,0.213-1.229-0.134c-0.176-0.33-0.009-1.177-0.004-1.566c0.009-0.638,0.122-0.757,0.617-1.167 c0.417-0.348,0.835-0.653,1.252-0.97C466.465,416.696,466.966,416.371,467.161,416.014z"></path> </g> <g> <path fill="#F47947" d="M706.587,626.301c0.068-0.481,0.066-0.979-0.055-1.43c-0.143-0.498-0.149-1.086-0.717-1.291 c-0.515-0.189-1.085,0.062-1.47,0.41c-0.435,0.389-0.709,1.014-1.067,1.483c-0.441,0.597-1.029,0.818-1.566,1.279 c-0.192,0.15-0.351,0.318-0.49,0.51c-0.21,0.312-0.39,0.646-0.571,1.015c-0.205,0.396-0.519,0.741-0.817,1.084 c-0.226,0.271-0.662,0.662-0.787,0.985c-0.134,0.396,0.144,0.9,0.426,1.144c0.569,0.516,1.225,0.459,1.911,0.551 c0.497,0.061,0.961,0.316,1.457,0.408c0.661,0.129,1.062-0.021,1.592-0.428c0.471-0.371,0.819-0.886,1.271-1.271 c0.229-0.195,0.353-0.412,0.442-0.666c0.08-0.252,0.12-0.516,0.122-0.809c0.016-0.476-0.141-0.914-0.086-1.396 C706.247,627.35,706.504,626.834,706.587,626.301z"></path> <path fill="#F47947" d="M740.115,651.129c-0.283-0.146-0.536-0.387-0.748-0.596c-0.438-0.377-0.841-0.824-1.206-1.273 c-0.925-1.117-1.869-2.43-2.627-3.635c-0.972-1.547-1.627-3.432-2.325-5.094c-0.628-1.494-1.51-3.082-2.812-4.056 c-0.694-0.5-1.787,0.154-2.411,0.509c-0.764,0.455-1.73,0.795-2.418,1.319c-0.363,0.279-0.652,0.604-1.035,0.855 c-1.008,0.641-2.118,1.213-3.141,1.783c-1.249,0.655-1.364-0.347-2.043-1.197c-0.364-0.479-0.988-1.316-1.589-1.467l-0.019-0.037 c-1.021,0.367-2.052,0.783-2.792,1.531c-0.594,0.596-1.694,3.065-2.648,3.055c-0.044,0-0.146,0.029-0.198,0.041 c-0.054-1.174,2.333-2.756,1.318-3.961c-0.904-1.115-3.195-1.109-4.367-1.865c-1.255-0.815-1.089-2.182-2.032-3.082 c-0.875-0.865-2.138,0.168-3.094,0.312c-1.191,0.176-2.497-0.043-3.712-0.058c-1.48-0.02-2.34-0.067-2.36,1.594 c-0.009,0.544-0.176,1.396-0.012,1.912c0.202,0.677,1.122,1.349,1.632,1.761c1.1,0.821,3.217,1.653,3.602,3.08 c0.337,1.172-0.731,1.926-0.979,2.93c-0.273,1.186-0.267,2.492-0.521,3.715c-0.195,0.855,0.264,1.43,0.53,2.207 c0.247,0.727,0.477,1.557,0.532,2.305c0.106,1.287-0.603,2.939-0.139,4.158c0.516,1.383,2.413,1.203,2.241,2.99 c-1.553,0.256-1.757-1.865-3.177-1.359c-0.562,0.209-1.095,0.615-1.63,0.9c-0.644,0.354-0.834,0.643-1.212,0.037 c-0.754-1.211-1.774-2.627-2.282-4.011c-0.239-0.709-0.188-1.336-1.118-1.235c-0.561,0.059-1.264,0.465-1.561,0.916 c-0.986,1.483-0.599,3.412-2.789,3.797c-0.908,0.16-2.119,0.072-2.681-0.729c-0.655-0.961-0.093-1.842,0.706-2.424 c1.668-1.192,3.909-1.315,5.324-2.92c1.486-1.641,1.792-3.938,2.831-5.846c0.795-1.438,2.062-3.48,1.271-5.064 c-0.733-1.524-1.974-2.35-3.608-2.768c-0.875-0.236-1.748-0.629-2.609-0.818c-0.941-0.192-1.359,0.111-1.938,0.81 c-0.575,0.698-1.103,1.354-1.597,2.11c-0.524,0.787-0.604,1.545-0.876,2.479c-0.344,1.209-1.196,1.848-2.234,2.51 c-0.607,0.396-1.94,0.836-1.455,1.764c0.528,0.998,1.538,1.097,1.038,2.416c-0.41,1.076-1.359,1.894-2.155,2.709 c-0.749,0.756-1.336,1.41-1.873,2.351c-0.496,0.897-0.888,1.969-1.501,2.75c-0.525,0.668-1.288,1.137-1.541,1.963 c-0.226,0.709-0.236,1.58-0.389,2.315c-0.096,0.423-0.062,1.738-0.394,2.054c-0.636,0.608-0.604-1.246-0.596-1.707 c-0.009-0.789-0.05-1.494,0.306-2.197c0.281-0.555,0.58-0.988,0.657-1.625c0.094-0.67-0.103-1.398,0.113-2.047 c0.449-1.297,1.826-2.775,2.798-3.719c1.035-1.019,1.88-1.627,1.386-3.271c-0.207-0.688-1.005-1.588-1.809-1.356 c-0.786,0.221-0.669,1.049-0.945,1.7c-0.809,1.886-2.602,2.873-4.251,3.974c-1.026,0.69-2.198,1.158-3.296,1.711 c-0.852,0.436-1.713,0.641-2.659,0.627c-1.051-0.014-2.124-0.027-3.146-0.236c-0.79-0.168-1.474-0.531-2.262-0.771 c-1.238-0.361-3.366-0.666-3.817,0.895c-0.523,1.783-0.752,3.433,0.12,5.142c0.505,0.979,1.145,1.866,1.667,2.821 c0.361,0.64,1.113,1.785,0.945,2.541c-1.197,0.258-2.324-2.459-2.684-3.358c-0.523-1.285-1.34-2.093-2.845-1.578 c-1.143,0.391-2.115,2.459-1.244,3.512c0.5,0.621,1.704,0.947,2.35,1.402c0.479,0.315,1.126,0.721,1.429,1.233 c0.574,0.929-0.197,0.933-0.92,0.527c-0.546-0.316-0.97-0.77-1.473-1.121c-1.201-0.877-2.268-2.32-3.878-1.645 c-1.401,0.594-1.854,2.145-3.028,2.998c-0.719,0.518-1.706,0.819-2.469,1.268c-1.005,0.564-1.943,1.195-2.868,1.855 c-1.51,1.055-3.159,2.102-4.519,3.307c-0.147,0.119-0.4,0.529-0.594,0.613c-0.633,0.248-0.267-0.146-0.771-0.408 c-0.666-0.361-1.499-0.01-2.071,0.385c-1.303,0.846-2.659,1.195-4.15,1.617c-2.101,0.572-3.967,1.582-5.917,2.502 c-1.888,0.896-3.884,1.559-5.814,2.326c-1.919,0.748-3.724,1.069-5.759,1.301c-2,0.207-3.898,0.498-5.908,0.172 c-2.023-0.32-3.657-1.953-5.868-1.268c-1.522,0.461-2.948,1.562-4.149,2.561c-1.576,1.34-3.306,2.428-5.022,3.574 c-4.744,3.19-9.438,6.496-14.229,9.637c-1.739,1.146-3.474,2.146-5.276,3.199c-1.25,0.731-2.568,1.359-3.885,1.979 c-1.437,0.67-3.689,1.681-5.104,0.654c-0.557-0.404-0.902-0.613-1.724-0.35c-0.807,0.239-1.042,1.004-1.701,1.369 c-1.005,0.559-0.855-0.718-1.186-1.298c-0.489-0.856-0.959-0.364-1.636,0.031c-1.079,0.613-2.147,1.582-3.433,1.734 c-1.708,0.219-2.442-1.599-3.953-2.029c-1.472-0.451-2.532,1.562-3.474,2.5c-1.126,1.121-1.945,2.478-3.07,3.646 c-0.83,0.854-2.622,2.2-3.928,1.95c-0.756-0.157-1.168-0.678-2.037-0.61c-0.691,0.065-0.8,0.377-1.369,0.688 c-1.25,0.654-3.358,0.515-4.613-0.112c-1.438-0.734-2.574-1.955-4.084-2.533c-1.129-0.42-2.002,0.41-2.938,0.985 c-1.189,0.724-2.354,1.476-3.608,2.087c-1.698,0.812-3.333,2.09-5.213,2.375c-0.294,0.028-0.744,0.137-1.017-0.013 c-0.345-0.151-0.354-0.522-0.699-0.588c-0.592-0.121-1.179,0.578-1.866,0.533c-0.67-0.041-0.886-0.57-1.47-0.662 c-0.534-0.07-1.229,0.439-1.707,0.691c-1.942,1.008-3.58,1.965-5.849,2.28c-2.148,0.279-4.473,0.851-6.521,1.527 c-3.849,1.25-3.239,6.676-3.292,9.893c-0.023,1.775,0.856,3.683,1.627,5.267c0.242,0.512,0.72,1.602,1.24,1.885 c0.967,0.502,1.631-0.402,2.326-0.883c1.288-0.888,2.959-1.099,4.43-1.566c2.266-0.735,4.57-1.705,6.749-2.658 c2.287-1.018,4.552-1.831,6.938-2.543c2.421-0.723,4.935-0.707,7.388-1.313c4.04-0.992,8.248-1.523,12.301-2.656 c0.978-0.271,1.975-0.963,2.937-1.168c1.4-0.307,1.38,2.514,3.158,2.033c0.577-0.156,1.094-0.711,1.654-0.963 c0.857-0.375,1.739-0.654,2.582-1.084c2.485-1.269,4.919-2.188,7.639-2.929c3.337-0.895,6.672-1.916,10.048-2.694 c5.036-1.152,9.962-3.297,14.505-5.748c2.036-1.092,3.955-2.65,6.115-3.467c0.458-0.158,1.267-0.603,1.742-0.287 c0.411,0.278,0.266,0.854,0.906,0.961c0.597,0.108,0.756-0.354,1.159-0.76c1.327-1.345,3.482-1.777,5.195-2.507 c2.998-1.278,5.738-2.858,8.573-4.44c4.379-2.437,8.867-4.668,13.375-6.859c2.305-1.125,4.608-2.248,6.905-3.381 c1.637-0.811,3.041-1.438,4.803-1.906c1.608-0.442,3.239-0.817,4.832-1.289c2.739-0.813,5.426-1.811,8.117-2.721 c2.37-0.787,4.823-1.229,7.205-1.93c3.179-0.947,6.36-1.853,9.599-2.601c2.928-0.666,5.533-2.271,8.534-2.729 c2.379-0.348,4.628-1.074,6.974-1.455c1.657-0.252,3.217-0.885,4.838-1.312c1.573-0.396,3.094-0.771,4.55-1.511 c1.411-0.703,3.239-0.799,4.786-1.242c1.969-0.567,3.919-0.86,5.922-1.272c2.349-0.478,5.736-2.162,8.086-0.848 c2.204,1.231,4.538,1.797,7.051,1.969c1.34,0.104,2.72,0.035,4.062,0.055c1.224,0.016,2.528,0.172,3.713-0.07 c2.997-0.686,5.584-2.438,8.053-4.18c1.111-0.779,2.228-1.77,3.449-2.391c1.014-0.527,2.424-1.629,3.578-1.685 c0.877-0.028,1.648,0.851,2.354,1.437l5.266,0.344l0.125-15.139C740.786,651.178,740.312,651.197,740.115,651.129z"></path> <path fill="#F47947" d="M653.67,645.207c-0.195,0.393-0.531,1.139-0.364,1.631c0.23,0.639,1.312,0.93,1.868,0.525 c0.21-0.162,0.266-0.506,0.466-0.72c0.234-0.239,0.544-0.336,0.824-0.528c0.646-0.422,0.997-1.047,1.231-1.769 c0.41-1.303-0.337-1.905-1.562-1.938l-0.008-0.033C655.15,642.66,654.023,644.504,653.67,645.207z"></path> <path fill="#F47947" d="M650.911,647.484c-0.069,0-0.139,0-0.231,0.004c-0.605,0.062-0.938,0.742-1.343,1.131 c-0.747,0.695-1.797,1.131-2.417,1.971c-0.249,0.31-0.39,0.652-0.428,1.01c-0.285,1.875,1.578,4.207,2.402,5.459 c0.755,1.156,1.664,3.216,3.329,3.029c1.758-0.188,1.5-3.396,1.675-4.744c0.08-0.559,0.584-1.836,0.149-2.252 c-0.663-0.641-1.425,0.125-1.727-1.014C652.009,650.912,652.993,647.514,650.911,647.484z"></path> <path fill="#F47947" d="M620.858,628.156c-0.25,0.065-0.597,0.094-0.89,0.059c-0.609-0.062-0.568-0.438-0.93-0.574 c-0.788-0.26-0.817,0.42-1.021,0.984c-0.277,0.746-0.961,1.555,0.076,2.078c0.91,0.475,1.566,0.447,2.229,1.242 c0.551,0.653,1.292,1.309,1.395,2.129c0.084,0.592-0.062,1.264-0.051,1.854c0.021,0.933,0.081,2.802,1.345,2.914 c0.741,0.062,1.786-1.491,2.154-2.092c0.564-0.961,0.615-2.16,1.271-3.135c0.828-1.228,2.29-3.047,3.56-1.433 c0.795,1.044,1.409,2.74,2.572,3.419c1.35,0.803,1.68-1.919,2.366-2.767c0.47,0.408,0.181,1.508,0.327,2.121 c0.208,1.043,1.024,1.893,1.449,2.852c0.412,0.91,0.846,1.828,1.18,2.781c0.239,0.638,0.335,1.89,1.02,2.215 c0.644,0.302,1.745-0.34,2.323,0.177c0.75,0.666-0.283,1.264-0.883,1.461c-1.601,0.584-2.753,1.778-1.609,3.348 c0.98,1.312,0.722,2.668-0.175,3.938c-0.508,0.7-1.865,1.811-1.583,2.76c0.311,1.104,2.102,0.561,1.953,1.803 c-0.078,0.736-0.691,0.848-1.303,1.039c-0.642,0.209-1.026,0.512-1.513,1.037c-0.369,0.402-0.601,0.906-1.123,0.262 c-0.323-0.399-0.177-1.059-0.188-1.535c-1.137,0.121-2.292,0.279-3.396,0.433c-0.913,0.131-1.553,0.207-2.29,0.766 c-0.565,0.463-1.069,0.832-1.776,1.013c-1.399,0.366-3.091,0.639-3.518,2.231c-0.57,2.103,2.17,2.48,3.465,2.896 c1.133,0.36,3.23,1.696,4.434,0.725c0.507-0.432,0.679-1.877,1.453-1.789c0.592,0.068,0.787,1.449,1.161,1.883 c0.442,0.539,1.076,0.689,1.77,0.402c0.761-0.299,1.786-0.836,2.461-1.293c1.019-0.729,1.8-1.765,2.789-2.527 c0.696-0.533,1.735-0.742,2.277-1.477c0.804-1.103,0.516-3.273,0.428-4.558c-0.066-0.731-0.177-1.562-0.043-2.297 c0.146-0.737,0.429-1.442,0.63-2.194c0.054-0.242,0.125-0.5,0.166-0.759c0.132-0.825,0.101-1.893,0.474-2.659 c0.416-0.875,1.228-1.535,2.008-2.058c1.152-0.762,2.771-2.115,1.623-3.715c-0.66-0.926-2.421-0.488-2.96-1.437 c-0.224-0.397-0.059-2.049,0.334-2.319c0.565-0.369,1.01,0.213,1.12-0.775c0.075-0.67-0.449-1.223-0.415-1.83 c0.096-1.362,2.692,0.269,2.886-1.323c0.23-1.906-2.35-0.953-3.046-1.472c-0.427-0.295-0.693-0.92-1.034-1.303 c-0.507-0.541-0.889-1.078-1.181-1.779c-0.169-0.41-0.264-0.867-0.474-1.266c-0.16-0.303-0.501-0.41-0.41-0.805 c0.145-0.654,1.805-0.476,2.397-0.623c1.209-0.293,1.696-1.22,2.107-2.298c0.312-0.821,0.612-1.399-0.066-2.116 c-0.568-0.586-1.277-0.914-2.081-0.974c-0.897-0.049-1.193-0.026-1.734,0.603c-0.353,0.401-0.771,0.914-1.272,0.502 c-0.572-0.48-0.332-1.703-0.393-2.34c-0.062-0.552-0.294-1.048-0.563-1.507c-0.137-0.239-0.524-0.643-0.572-0.899 c-0.279-1.779,2.856,0.123,3.362,0.217c0.557,0.119,1.295,0.291,1.554-0.332c0.223-0.51,0.002-1.516-0.19-1.994 c-0.266-0.674-0.758-1.108-1.164-1.711c-0.168-0.268-0.235-0.51-0.488-0.709c-0.293-0.223-0.895-0.145-0.989-0.524 c-0.269-0.795,0.995-0.689,1.336-1.115c0.598-0.734-0.062-1.74-0.521-2.34c-0.717-0.968-1.187-1.929-2.282-2.402 c-0.951-0.408-1.471-0.775-1.999-1.719c-0.15-0.271-0.759-1.121-0.757-1.414c0.04-0.379,0.628-0.576,0.93-0.736 c0.473-0.277,1.637-0.451,1.942-0.879c0.43-0.588-0.215-1.258-0.605-1.652c-0.47-0.453-0.729-0.912-1.119-1.397 c-0.448-0.586-1.071-1.031-1.483-1.666c-0.447-0.678-0.625-1.635-0.682-2.488c-0.085-1.457-0.018-2.813-0.996-3.981 c-0.8,0.438-1.122,1.467-1.178,2.336c-0.013,0.231-0.097,0.772-0.021,0.987c0.102,0.226,0.478,0.353,0.561,0.56 c0.281,0.83-1.289,2.412-1.896,2.895c-0.505,0.39-1.491,0.619-2.138,0.676c-1.155,0.115-1.596-1.004-2.029-1.866 c-0.57-1.162-1.039-2.15-2.081-2.98c-0.61-0.492-1.281-1.369-2.15-1.199c-0.727,0.13-1.511,0.855-1.898,1.517 c-0.457,0.811-0.196,1.125,0.302,1.854c0.566,0.808,0.972,1.664,1.37,2.564c0.427,0.955,0.562,1.979,0.951,2.967 c0.341,0.875,0.712,1.432,0.731,2.396c0.027,1.256-0.65,1.92-1.227,2.961c-0.555,1.028-0.646,2.825-1.757,3.473 c-0.395,0.236-1.416,0.223-1.512,0.809c-0.113,0.736,1.318,0.519,1.709,1.021c0.44,0.555,0.146,1.344-0.323,1.836 c-0.552,0.613-1.229,0.932-1.566,1.762c-0.304,0.771-0.435,1.688-0.67,2.479c-0.522,1.785-1.224,3.271-1.935,4.947 c-0.754,1.774,1.585,1.883,1.6,3.416C622.226,627.555,621.582,627.959,620.858,628.156z"></path> <path fill="#F47947" d="M623.124,649.242c0.59-0.326,0.646-0.603,1.386-0.594c0.655,0.012,1.344,0.067,1.98-0.017 c0.637-0.094,1.019-0.211,1.531-0.6c0.429-0.306,0.979-0.478,1.379-0.791c0.364-0.271,0.405-0.676,0.884-0.359 c0.582,0.396,0.438,1.258,0.923,1.676c0.472,0.4,1.055-0.038,1.502-0.256c0.764-0.36,1.67-0.479,2.398-0.932 c0.642-0.396,1.026-0.832,0.761-1.541c-0.226-0.588-0.439-1.211-0.697-1.812c-0.275-0.704-0.561-1.396-0.911-2.047 c-0.322-0.6-0.78-1.034-1.116-1.606c-0.232-0.416-0.651-1.67-1.258-1.314c-0.503,0.267-0.488,1.195-0.493,1.654 c-0.016,1.213,0.765,3.246-0.476,4.1c-0.75,0.504-1.295,0-1.612-0.692c-0.146-0.347-0.18-0.709-0.293-1.054 c-0.127-0.35-0.355-0.524-0.561-0.838c-0.169-0.258-0.222-0.656-0.305-0.949c-0.222-0.754-0.471-1.479-0.979-2.079 c-0.577-0.658-0.799-0.099-1.108,0.521c-0.303,0.664-0.787,0.848-1.207,1.375c-0.454,0.572-0.93,1.289-1.146,1.992 c-0.233,0.764-0.565,1.137-1.291,1.428c-0.35,0.146-1.04,0.449-0.809,0.98c0.087,0.219,0.431,0.188,0.549,0.317 c0.237,0.228,0.183,0.449,0.179,0.775C622.343,647.271,621.598,650.082,623.124,649.242z"></path> </g> <g> <path fill="#F47947" d="M631.415,657.531c1.104-0.158,2.261-0.31,3.396-0.438c0.012,0.484-0.135,1.144,0.188,1.545 c0.523,0.652,0.754,0.138,1.123-0.262c0.484-0.535,0.871-0.83,1.513-1.041c0.61-0.178,1.225-0.309,1.303-1.045 c0.147-1.23-1.644-0.68-1.953-1.803c-0.282-0.943,1.075-2.052,1.583-2.75c0.896-1.279,1.155-2.629,0.175-3.939 c-1.144-1.565,0.01-2.771,1.609-3.346c0.6-0.207,1.63-0.797,0.883-1.461c-0.578-0.506-1.681,0.114-2.323-0.187 c-0.685-0.319-0.779-1.559-1.02-2.198c-0.334-0.959-0.768-1.871-1.18-2.787c-0.425-0.97-1.241-1.812-1.449-2.861 c-0.146-0.604,0.143-1.703-0.327-2.107c-0.695,0.847-1.018,3.556-2.366,2.761c-1.163-0.687-1.777-2.373-2.572-3.416 c-1.27-1.625-2.73,0.213-3.56,1.432c-0.656,0.975-0.706,2.168-1.271,3.125c-0.369,0.617-1.413,2.17-2.154,2.105 c-1.264-0.117-1.325-1.988-1.345-2.929c-0.011-0.582,0.135-1.256,0.051-1.838c-0.104-0.83-0.844-1.492-1.395-2.137 c-0.62-0.754-1.243-0.789-2.072-1.17l1.416,4.369c0.409,0.143,0.707,0.42,0.67,0.965c-0.013,0.225-0.07,0.442-0.143,0.664 l2.463,7.606c0.56-0.276,0.843-0.641,1.056-1.312c0.228-0.703,0.69-1.42,1.146-1.992c0.423-0.527,0.896-0.711,1.207-1.375 c0.31-0.619,0.522-1.18,1.109-0.521c0.517,0.602,0.766,1.325,0.977,2.08c0.084,0.293,0.129,0.696,0.309,0.948 c0.21,0.312,0.432,0.488,0.55,0.838c0.113,0.345,0.154,0.707,0.301,1.054c0.319,0.692,0.854,1.196,1.604,0.692 c1.239-0.854,0.46-2.887,0.492-4.094c0.005-0.457,0-1.379,0.496-1.66c0.613-0.338,1.021,0.908,1.255,1.32 c0.337,0.576,0.794,1.012,1.111,1.602c0.355,0.656,0.641,1.351,0.912,2.054c0.261,0.614,0.478,1.221,0.699,1.813 c0.269,0.713-0.117,1.146-0.758,1.541c-0.732,0.465-1.638,0.572-2.4,0.935c-0.447,0.225-1.029,0.647-1.499,0.245 c-0.478-0.403-0.344-1.271-0.926-1.663c-0.476-0.318-0.516,0.094-0.882,0.358c-0.4,0.312-0.953,0.478-1.38,0.791 c-0.516,0.377-0.894,0.512-1.531,0.599c-0.638,0.086-1.325,0.024-1.981,0.018c-0.198-0.004-0.345,0.018-0.469,0.053l3.416,10.543 c0.637-0.194,1.123-0.533,1.651-0.955C629.862,657.732,630.502,657.656,631.415,657.531z"></path> <path fill="#F47947" d="M706.532,624.871c-0.143-0.498-0.149-1.086-0.717-1.291c-0.515-0.189-1.085,0.062-1.47,0.41 c-0.435,0.389-0.709,1.014-1.067,1.483c-0.441,0.597-1.029,0.818-1.566,1.279c-0.192,0.15-0.351,0.318-0.49,0.51 c-0.21,0.312-0.39,0.646-0.571,1.015c-0.205,0.396-0.519,0.741-0.817,1.084c-0.226,0.271-0.662,0.661-0.787,0.985 c-0.134,0.396,0.144,0.9,0.426,1.144c0.569,0.516,1.225,0.459,1.911,0.551c0.497,0.061,0.961,0.316,1.457,0.408 c0.661,0.129,1.062-0.021,1.592-0.428c0.471-0.371,0.819-0.886,1.271-1.271c0.229-0.195,0.353-0.412,0.442-0.666 c0.08-0.252,0.12-0.516,0.122-0.809c0.016-0.476-0.141-0.914-0.086-1.396c0.067-0.531,0.324-1.047,0.407-1.58 C706.655,625.818,706.653,625.32,706.532,624.871z"></path> <path fill="#F47947" d="M789.268,434.22l-2.933-21.081l-53.584-46.209c-0.007,0.009-0.018,0.009-0.033,0.025 c-2.11,1.34-3.373-3.958-6.14-0.697c-1.59,1.903-1.646,4.83-2.614,6.947c-0.562,1.263-0.801,2.078-0.182,3.384 c0.61,1.304,1.493,2.1,1.684,3.565c0.248,1.973-0.603,1.191-1.889,2.145c-1.34,0.968-1.259,2.029-0.48,3.115 c0.431,0.604,0.649,0.404,0.834,1.28c0.138,0.677,0.1,1.86-0.066,2.534c-0.489,1.978-1.579,1.368-2.845,0.342 c-2.148-1.729-3.788-3.981-5.532-6.11c-2.165-2.676-4.519-5.254-5.775-8.496c-1.432-3.769-2.188-7.673-3.823-11.432 c-0.471-1.108-1.038-2.342-1.903-3.218c-0.341-0.35-1.977-1.013-2.032-1.435c-0.104-1.026,2.187-1.073,2.752-1.535 c1.077-0.894,0.711-2.314,0.364-3.52c-0.56-2.019-1.466-3.653-2.718-5.327c-0.98-1.317-1.632-2.906-2.562-4.23 c-1.368-1.912-5.56-2.558-7.511-1.447c-1.12,0.647-1.845,2.012-1.003,2.87c1.011,1.034,2.094,0.451,1.954,2.552 c-0.434,6.554-9.152,4.623-13.36,3.817c-1.768-0.338-4.981-0.85-4.104-3.454c0.413-1.265,1.489-1.122,0.64-2.589 c-0.979-1.704-2.507-1.088-4.041-1.568c-1.69-0.522-3.044-1.817-4.775-2.225c-1.525-0.36-2.711-0.66-3.804,0.614 c-0.807,0.931-0.895,1.919-2.424,1.58c0.071-0.94,0.094-3.016-1.411-2.558c-1.158,0.355-1.088,2.065-2.73,0.863 c-0.903-0.658-0.679-2.119-1.775-2.581c-1.603-0.667-1.182,1.473-2.584,1.491c-1.226,0.018-1.67-2.043-2.547-2.872 c-1.121-1.073-2.61-2.289-4.039-2.912c-2.553-1.098-3.764,1.345-5.567,2.969c-0.73,0.632-2.837,2.369-3.157,0.514 c-1.014-0.122-1.757,1.509-2.558,1.934c-0.881,0.453-2.535,0.354-1.901,1.954c0.493,1.233,1.959,0.865,2.293,2.315 c0.324,1.46-0.959,2.333-1.899,3.199c-1.038,0.942-2.434,1.6-3.053,2.8c-0.607,1.171-0.674,2.677-1.99,3.447 c-1.675,0.965-2.314-0.076-3.106-1.435c-0.462-0.79-1.769-2-1.81-2.912c-0.07-1.537,0.888-0.742,1.671-1.432 c0.781-0.713,0.583-1.741,0.12-2.671c-0.454-0.907-1.41-1.366-1.883-2.264c-0.493-0.958-0.228-2.172-1.025-3.048 c-1.976-2.157-3.074,0.067-3.775,1.774c-0.283,0.701-0.645,1.843-1.578,1.963c-1.311,0.168-0.93-1.105-1.791-1.715 c-0.932,0.755-1.378,1.966-2.451,2.542c-0.799,0.438-2.161,0.727-3.129,0.811c-1.981,0.171-1.984-0.871-3.509-1.639 c-1.316-0.664-2.411-0.042-2.855,1.158c-1.145,3.07,2.479,4.07,2.619,6.542c0.081,1.375-0.71,1.894-1.74,2.487 c-1.145,0.656-2.381,1.582-3.575,2.088c-1.028,0.438-2.767,0.332-3.292,1.561c-0.639,1.421,0.551,2.659,1.419,3.528 c0.967,0.945,2.104,2.231,3.513,2.494c1.707,0.333,3.095-0.953,4.977-0.647c4.121,0.684,0.283,3.803,1.444,6.049 c0.5,0.948,1.807,1.142,2.259,2.083c0.804,1.715-0.646,3.296-1.403,4.672c-0.344,0.628-0.482,1.325-0.938,1.856 c-0.63,0.75-1.162,0.657-1.197,1.8c-0.038,1.188,0.903,3.445,1.372,4.558c0.685,1.625,1.489,2.444,3.142,3.304 c1.436,0.758,2.865,1.978,4.452,2.396c0.799,0.203,1.931-0.17,2.234,0.832c0.382,1.256-2.024,3.409-2.921,4.025 c-2.546,1.728-5.525,2.5-8.068,4.219c-3.632,2.467-7.793-1.09-10.577-3.446c-1.687-1.45-5.822-4.917-5.355-7.71 c0.073-0.435,0.25-0.854,0.567-1.228c0.576-0.709,2.571-1.852,3.438-2.191c1.107-0.457,2.259-0.089,3.178,0.621 c0.938,0.726,1.433,2.31,2.262,2.824c0.435,0.269,1.092,0.57,1.253-0.264c0.099-0.432-0.71-1.168-0.961-1.565 c-0.684-1.05-1.368-1.993-2.069-3.017c-1.021-1.518,0.16-1.188,0.868-2.561c1.671-3.301-4.243-4.544-6.237-6.157 c-1.549-1.245-2.872-2.762-4.525-3.92c-1.895-1.339-4.08-2.5-6.145-3.6c-2.981-1.618-5.542-3.224-8.97-1.823 c-2.132,0.872-4.139,1.137-6.407,1.335c-1.56,0.139-3.001-0.118-3.429,1.521c-0.706,2.753,3.461,6.596-0.107,8.054 c-0.861,0.352-2.445,0.842-3.908,0.914v0.008c-0.613,0.036-1.191,0.002-1.696-0.147l-0.016,0.081l-0.021-0.011l0.021-0.078 c-0.721-0.178-1.303-0.582-1.593-1.293c-0.276-0.717,0.009-2.124,0.116-3.083l0.016,0.007c0.022-0.158,0.023-0.305,0.045-0.429 c0.07-1.613,0.791-1.183,1.304-2.39c0.704-1.621-1.386-2.515-2.367-3.195c-1.264-0.882-2.043-1.739-3.087-2.873 c-1.978-2.157-4.69-0.536-6.948,0.685c-1.48,0.8-1.214,1.242-1.498,2.783c-0.216,1.142-1.096,2.68-2.253,1.67 c-1.89-1.639,1.113-6.183,2.633-7.097c2.182-1.301,5.949-0.661,7.401-3.125c1.139-1.917-0.233-2.905-1.788-3.764 c-1.56-0.848-2.991-1.865-4.478-2.746c-1.383-0.839-3.863-0.766-2.703,1.454c0.398,0.779,1.432,0.918,0.998,1.967 c-0.483,1.176-1.438,0.51-2.021-0.156c-1.325-1.529-1.587-3.31-3.211-4.734c-1.286-1.12-3.511-2.737-4.887-1.477 c-0.698,0.627-1.111,1.954-1.793,2.691c-0.785,0.856-1.7,1.567-2.73,2.098c-1.075,0.542-2.202,1.186-2.818,2.202 c-0.668,1.1-0.842,2.51-1.513,3.673c-2.239,3.98-6.812,5.914-10.688,8.293c-0.271,0.165-0.514,0.32-0.774,0.493 c-1.709,1.123-4.01,3.808-6.011,1.525c-0.924-1.037-4.154-5.531-5.037-1.948c-0.362,1.424,0.202,2.356-0.755,3.665 c-0.64,0.859-1.732,1.459-2.142,2.425c-0.257,0.561-0.367,1.059-0.391,1.502c-0.132,2.128,1.978,2.935,3.724,4.297 c3.297,2.566-5.703,4.818-7.105,6.138c-2.905,2.746-4.435,6.571-6.511,9.91c-0.994,1.589-2.328,2.748-3.414,4.174 c-0.92,1.217-1.123,2.872-1.915,4.165c-1.09,1.769-2.321,3.517-3.34,5.331c-1.061,1.918-2.139,4.073-3.549,5.756 c-1.188,1.411-2.759,2.376-3.805,3.926c-2.012,2.909-4.051,6.693-4.416,10.229c-0.029,0.318-0.061,0.896-0.088,1.631l0.854-0.31 c0,0,21.946,0.58,25.988,1.733c8,2.283-1.099,6.635,7.507,11.55c8.086,4.619,8.661-2.312,14.438,6.35 c5.772,8.664,2.887,18.479,5.772,24.256c2.89,5.775,20.791,30.029,22.522,31.185c1.732,1.155,2.89-5.197,5.197-2.31 c2.308,2.889,2.103,10.224,5.197,11.549c8.085,3.466,20.211-16.747,26.563-16.17c6.354,0.578,11.548,16.75,13.859,26.566 c2.311,9.813,4.042,24.254-0.578,29.451c-4.62,5.196,2.889,17.323,2.889,17.323l0.812,2.509c0.191,0.174,0.402,0.34,0.659,0.489 c0.752,0.445,1.245,0.775,1.979,0.188c0.601-0.453,0.931-1.416,1.639-1.777c0.976-0.502,1.466,0.013,1.696,0.972 c0.28,1.252-0.247,1.612-1.254,2.188c-1.649,0.928-3.073,1.93-2.015,3.951c0.812,1.539,2.267,3.096,3.539,4.299 c1.601,1.537,3.088,0.232,4.792-0.379c1.176-0.42,2.528-1.066,3.809-1.016c1.163,0.032,1.684,1.014,2.379,1.807 c0.313,0.375,0.607,0.912,1.175,0.885c0.727-0.022,0.732-0.61,0.974-1.209c0.252-0.6,0.453-1.131,0.941-1.621 c0.568-0.578,0.749-0.561,0.967-1.307c0.224-0.754,0.307-1.641,0.152-2.418c-0.342-1.586-0.355-3.189-0.746-4.818 c-0.815-3.328-1.356-6.555-1.794-9.969c-0.218-1.709-0.428-3.467-0.715-5.164c-0.151-0.891-0.374-2.219-0.046-3.094 c0.364-1.035,1.264-1.084,1.423,0.018c0.105,0.84-0.309,1.787-0.4,2.613c-0.151,1.178-0.135,2.494-0.081,3.691 c0.039,0.905,0.444,1.342,0.851,2.104c0.764,1.424,1.02,2.906,1.438,4.375c0.462,1.607,0.511,3.225,0.778,4.918 c0.246,1.562,0.332,3.568,1.743,4.398c0.657,0.401,1.565,0.51,2.345,0.375c0.312-0.049,0.658-0.287,0.96-0.351 c0.344-0.049,0.782,0.009,1.146-0.071c0.688-0.17,1.08-0.804,0.866-1.597c-0.429-1.582-1.017-0.127-1.505,0.365 c-0.926,0.9-4.667,0.51-3.104-0.951c1.431-1.326,3.068-0.031,3.237-2.522c0.171-2.562-0.817-4.73-1.404-7.146 c-0.254-1.035-0.53-2.021-0.438-3.141c0.045-0.853,0.539-2.406,1.148-1.105c0.738,1.553-0.031,3.779,0.599,5.484 c0.565,1.541,1.235,3.09,1.722,4.699c0.312,1.043,1,1.717,1.697,2.44h0.018c0.349,0.365,0.695,0.748,1.002,1.185 c0.412,0.59,0.855,1.371,1.422,1.819c0.986,0.785,1.457,0.42,1.941-0.534c0.223-0.445,0.209-0.808,0.796-0.853 c0.733-0.043,0.436,0.229,0.653,0.672c0.354,0.746,0.343,1.588,1.341,0.803c1.635-1.307,0.317-3.149-0.349-4.879 c-1.241-3.209-1.5-6.946-0.423-10.303c0.548-1.662,1.394-3.219,2.206-4.758c0.654-1.229,1.412-1.383,2.682-1.479h0.009 c0.192,0.943-0.585,1.216-1.15,1.742c-0.751,0.688-1.142,1.604-1.606,2.476c-1.035,1.897-1.767,3.223-1.797,5.461 c-0.057,3.655,1.323,7.979,3.835,10.639c1.911,2.031,4.081,3.854,6.367,5.484c2.185,1.524,4.201,3.291,6.383,4.817 c2.203,1.525,4.642,2.584,6.896,3.967c7.086,4.347,13.928,9.084,21.157,13.185c3.697,2.106,7.537,4.033,10.894,6.688 c1.244,0.99,2.525,1.765,3.786,2.72c0.888,0.684,2.54,2.006,2.245,3.334c-0.201,0.87-1.056,1.649-1.367,2.524 c-0.24,0.666-0.301,1.363-0.312,2.111c-0.014,1.686-0.156,2.684-1.276,4.004c-0.689,0.816-1.672,1.414-2.123,2.408 c-0.522,1.129,0.412,1.451,1.438,1.285c1.147-0.199,2.303-1.029,2.849-2.031c0.39-0.717,0.889-1.338,1.404-1.969 c0.166-0.222,0.335-0.427,0.508-0.646c0.664-0.852,1.203-1.723,1.929-2.531c1.248-1.403,2.551-2.893,3.249-4.647 c0.259-0.654,0.343-1.424,0.172-2.08c-0.155-0.66-0.637-1.283-0.531-2.006c0.1-0.928,1.084-1.396,1.774-1.938 c0.842-0.653,1.643-1.391,2.469-2.073c1.82-1.478,3.987-2.662,6.075-3.693c2.384-1.164,4.658-2.539,7.1-3.574 c1.238-0.521,2.511-0.99,3.836-1.246c0.461-0.098,0.969-0.065,1.35-0.311c0.53-0.371,0.887-1.252,1.178-1.791 c0.477-0.785,1.089-1.562,1.41-2.418c0.579-1.533-0.298-3.584-0.587-5.104c-0.401-2.08-1.646-3.758-2.994-5.299 c-0.838-0.951-1.992-1.58-3.008-2.35c-1.03-0.771-1.769-1.646-2.582-2.65c-0.244-0.313-0.584-0.594-0.664-0.955 c0.186,0.002,0.366,0.006,0.53,0.008c1.494,0.14,2.238,1.25,3.239,2.441c0.711,0.863,1.475,1.727,2.271,2.521 c0.716,0.716,1.533,1.24,2.239,1.949c1.479,1.465,1.562,3.008,1.863,4.92c0.117,0.764,0.047,2.242,0.908,2.349 c0.937,0.104,2.352-0.908,3.082-1.439c0.74-0.533,1.211-1.232,1.525-2.021c0.499-1.293,0.52-2.836,0.536-4.221 c0.031-2.313-0.219-5.451,1.968-6.852c0.14-0.084,0.288-0.188,0.453-0.271l-0.558-0.438c0.81-1.697,2.319-2.777,4.033-3.429 c1.956-0.743,4.155-0.454,6.126-1.182c1.274-0.473,2.408-0.957,3.771-1.164c1.122-0.174,1.873-0.242,2.767-0.875 c0.487-0.371,1.429-0.549,1.703-1.18c0.312-0.746-0.224-1.09-0.511-1.695c-0.42-0.893-0.488-2.022-0.479-2.969 c0.011-0.559-0.097-1.258,0.018-1.809c0.082-0.394,0.329-0.718,0.376-1.13c0.126-1.006-0.544-1.096-1.053-1.786 c-0.523-0.75-0.528-1.525-1.158-2.171c-0.595-0.616-1.122-1.684-1.463-2.495c-0.336-0.816-0.683-1.818-0.089-2.568 c0.482-0.631,1.028-0.848,1.092-1.742c0.134-2.313-0.285-0.746-0.785-1.768l0.198-14.355l2.831-5.125l-0.003-52.793l-4.3-18.438 l27.021-9.634L789.268,434.22z"></path> <path fill="#F47947" d="M599.355,686.252c-1.576,1.34-3.306,2.428-5.022,3.574c-4.744,3.19-9.438,6.496-14.229,9.637 c-1.738,1.146-3.473,2.146-5.275,3.199c-1.25,0.731-2.568,1.359-3.885,1.979c-1.437,0.67-3.689,1.681-5.104,0.654 c-0.557-0.404-0.903-0.613-1.724-0.35c-0.808,0.239-1.042,1.004-1.701,1.369c-1.005,0.559-0.856-0.718-1.186-1.298 c-0.489-0.856-0.959-0.364-1.636,0.031c-1.079,0.613-2.147,1.582-3.433,1.734c-1.708,0.219-2.442-1.599-3.953-2.029 c-1.472-0.451-2.532,1.562-3.474,2.5c-1.126,1.121-1.945,2.478-3.07,3.646c-0.83,0.854-2.622,2.2-3.928,1.95 c-0.756-0.157-1.168-0.678-2.037-0.61c-0.691,0.065-0.8,0.377-1.369,0.688c-1.25,0.654-3.358,0.515-4.613-0.112 c-1.438-0.734-2.575-1.955-4.084-2.533c-1.129-0.42-2.002,0.41-2.938,0.985c-1.189,0.724-2.354,1.476-3.608,2.087 c-1.698,0.812-3.333,2.09-5.213,2.375c-0.294,0.028-0.744,0.137-1.017-0.013c-0.345-0.151-0.354-0.522-0.699-0.588 c-0.592-0.121-1.18,0.578-1.866,0.533c-0.67-0.041-0.886-0.57-1.47-0.662c-0.534-0.07-1.229,0.439-1.707,0.691 c-1.942,1.008-3.58,1.965-5.85,2.28c-2.147,0.279-4.472,0.851-6.521,1.527c-3.849,1.25-3.239,6.676-3.292,9.893 c-0.023,1.775,0.855,3.683,1.627,5.267c0.242,0.512,0.72,1.602,1.24,1.885c0.967,0.502,1.631-0.402,2.326-0.883 c1.287-0.888,2.959-1.099,4.43-1.566c2.266-0.735,4.57-1.705,6.749-2.658c2.287-1.018,4.552-1.831,6.938-2.543 c2.42-0.723,4.935-0.707,7.388-1.313c4.04-0.992,8.248-1.523,12.301-2.656c0.977-0.271,1.975-0.963,2.936-1.168 c1.401-0.307,1.38,2.514,3.159,2.033c0.577-0.156,1.093-0.711,1.654-0.963c0.856-0.375,1.739-0.654,2.582-1.084 c2.484-1.269,4.919-2.188,7.639-2.929c3.337-0.895,6.672-1.916,10.048-2.694c5.036-1.152,9.962-3.297,14.504-5.748 c2.037-1.092,3.956-2.65,6.116-3.467c0.458-0.158,1.267-0.603,1.742-0.287c0.411,0.278,0.265,0.854,0.906,0.961 c0.597,0.108,0.756-0.354,1.159-0.76c1.326-1.345,3.482-1.777,5.195-2.507c2.998-1.278,5.738-2.858,8.573-4.44 c4.379-2.437,8.867-4.668,13.375-6.859c2.305-1.125,4.608-2.248,6.905-3.381c1.637-0.811,3.041-1.438,4.803-1.906 c1.608-0.442,3.239-0.817,4.832-1.289c2.739-0.813,5.426-1.811,8.117-2.721c2.37-0.787,4.823-1.229,7.205-1.93 c3.179-0.947,6.36-1.853,9.599-2.601c2.928-0.666,5.533-2.271,8.534-2.729c2.379-0.348,4.628-1.074,6.974-1.455 c1.657-0.252,3.216-0.885,4.838-1.312c1.573-0.396,3.094-0.771,4.55-1.511c1.41-0.703,3.239-0.799,4.785-1.242 c1.97-0.567,3.919-0.86,5.923-1.272c2.349-0.478,5.736-2.162,8.086-0.848c2.203,1.231,4.538,1.797,7.051,1.969 c1.34,0.104,2.72,0.035,4.062,0.055c1.225,0.016,2.529,0.172,3.714-0.07c2.996-0.686,5.584-2.438,8.053-4.18 c1.11-0.779,2.228-1.77,3.449-2.391c1.014-0.527,2.424-1.629,3.578-1.685c0.876-0.028,1.648,0.851,2.354,1.437l5.266,0.344 l0.125-15.139c-0.055,0.022-0.527,0.043-0.726-0.025c-0.283-0.146-0.536-0.387-0.748-0.596c-0.438-0.377-0.841-0.824-1.206-1.273 c-0.925-1.117-1.869-2.43-2.627-3.635c-0.972-1.547-1.627-3.432-2.325-5.094c-0.628-1.494-1.51-3.082-2.812-4.056 c-0.694-0.5-1.787,0.154-2.411,0.509c-0.764,0.454-1.73,0.795-2.418,1.319c-0.363,0.279-0.652,0.604-1.035,0.855 c-1.008,0.641-2.118,1.213-3.141,1.782c-1.249,0.656-1.364-0.346-2.043-1.196c-0.364-0.479-0.988-1.316-1.589-1.467l-0.019-0.037 c-1.021,0.366-2.051,0.782-2.792,1.53c-0.593,0.597-1.694,3.066-2.648,3.056c-0.044,0-0.146,0.028-0.197,0.041 c-0.055-1.174,2.332-2.756,1.317-3.961c-0.904-1.115-3.195-1.109-4.367-1.865c-1.255-0.816-1.089-2.182-2.031-3.082 c-0.875-0.865-2.139,0.168-3.095,0.311c-1.191,0.177-2.497-0.043-3.712-0.057c-1.48-0.02-2.34-0.068-2.36,1.594 c-0.009,0.543-0.176,1.396-0.012,1.912c0.202,0.676,1.122,1.349,1.633,1.76c1.099,0.822,3.216,1.654,3.601,3.08 c0.337,1.173-0.731,1.927-0.979,2.931c-0.273,1.186-0.267,2.492-0.521,3.715c-0.195,0.854,0.264,1.43,0.53,2.207 c0.247,0.727,0.477,1.557,0.532,2.305c0.106,1.287-0.603,2.939-0.139,4.158c0.517,1.383,2.413,1.203,2.241,2.99 c-1.553,0.256-1.757-1.865-3.177-1.359c-0.562,0.209-1.094,0.615-1.63,0.9c-0.644,0.354-0.834,0.643-1.212,0.037 c-0.754-1.211-1.774-2.627-2.282-4.011c-0.239-0.709-0.188-1.336-1.118-1.235c-0.561,0.059-1.264,0.465-1.561,0.916 c-0.986,1.483-0.599,3.412-2.789,3.797c-0.908,0.16-2.119,0.072-2.681-0.729c-0.654-0.961-0.093-1.842,0.706-2.424 c1.668-1.193,3.909-1.315,5.324-2.92c1.486-1.641,1.792-3.939,2.831-5.846c0.795-1.438,2.062-3.48,1.271-5.064 c-0.733-1.524-1.974-2.35-3.608-2.768c-0.875-0.236-1.748-0.629-2.609-0.818c-0.941-0.193-1.359,0.111-1.938,0.81 c-0.575,0.698-1.103,1.354-1.597,2.11c-0.524,0.787-0.604,1.545-0.876,2.479c-0.344,1.209-1.196,1.848-2.234,2.51 c-0.607,0.396-1.94,0.836-1.455,1.764c0.529,0.998,1.538,1.097,1.038,2.416c-0.41,1.076-1.359,1.894-2.155,2.709 c-0.749,0.756-1.336,1.41-1.873,2.351c-0.496,0.897-0.888,1.969-1.501,2.75c-0.525,0.668-1.288,1.137-1.541,1.963 c-0.226,0.709-0.236,1.58-0.389,2.315c-0.095,0.422-0.062,1.738-0.394,2.054c-0.636,0.608-0.604-1.246-0.596-1.707 c-0.009-0.789-0.05-1.494,0.306-2.197c0.281-0.555,0.58-0.988,0.657-1.625c0.094-0.67-0.103-1.398,0.113-2.047 c0.449-1.297,1.826-2.775,2.798-3.72c1.035-1.018,1.88-1.627,1.386-3.27c-0.207-0.688-1.005-1.588-1.809-1.357 c-0.786,0.222-0.669,1.05-0.945,1.701c-0.809,1.885-2.602,2.873-4.251,3.974c-1.026,0.69-2.198,1.157-3.296,1.711 c-0.852,0.436-1.713,0.641-2.659,0.627c-1.051-0.015-2.124-0.027-3.146-0.236c-0.79-0.168-1.474-0.531-2.262-0.771 c-1.238-0.361-3.365-0.666-3.817,0.895c-0.523,1.783-0.752,3.432,0.12,5.141c0.505,0.98,1.145,1.867,1.667,2.822 c0.361,0.639,1.113,1.785,0.945,2.541c-1.197,0.258-2.323-2.459-2.684-3.358c-0.523-1.285-1.34-2.093-2.845-1.578 c-1.143,0.391-2.115,2.459-1.244,3.512c0.5,0.621,1.704,0.947,2.35,1.402c0.479,0.315,1.126,0.721,1.429,1.233 c0.574,0.928-0.197,0.933-0.92,0.527c-0.546-0.316-0.97-0.771-1.473-1.121c-1.201-0.877-2.268-2.32-3.878-1.645 c-1.401,0.594-1.854,2.145-3.028,2.997c-0.719,0.519-1.706,0.82-2.469,1.269c-1.005,0.563-1.943,1.195-2.868,1.854 c-1.51,1.056-3.159,2.103-4.519,3.308c-0.147,0.119-0.4,0.528-0.594,0.612c-0.633,0.248-0.267-0.145-0.771-0.407 c-0.666-0.361-1.499-0.011-2.071,0.385c-1.303,0.846-2.658,1.195-4.15,1.617c-2.101,0.571-3.967,1.582-5.917,2.502 c-1.888,0.896-3.884,1.559-5.814,2.326c-1.919,0.748-3.724,1.069-5.759,1.301c-2,0.207-3.898,0.498-5.908,0.172 c-1.389-0.221-2.595-1.043-3.926-1.326l-4.689,1.531C600.269,685.52,599.794,685.889,599.355,686.252z"></path> <path fill="#F47947" d="M655.174,647.363c0.21-0.162,0.266-0.506,0.466-0.72c0.234-0.239,0.544-0.336,0.824-0.528 c0.646-0.422,0.997-1.047,1.231-1.769c0.411-1.303-0.337-1.905-1.562-1.938l-0.008-0.033c-0.977,0.285-2.104,2.129-2.457,2.832 c-0.195,0.393-0.531,1.139-0.364,1.631C653.536,647.477,654.617,647.768,655.174,647.363z"></path> <path fill="#F47947" d="M646.92,650.59c-0.249,0.31-0.39,0.652-0.428,1.01c-0.285,1.875,1.578,4.207,2.402,5.459 c0.755,1.156,1.664,3.216,3.329,3.029c1.758-0.188,1.5-3.396,1.675-4.744c0.08-0.559,0.584-1.836,0.149-2.252 c-0.663-0.641-1.425,0.125-1.727-1.014c-0.313-1.166,0.671-4.564-1.411-4.594c-0.069,0-0.139,0-0.231,0.004 c-0.605,0.062-0.938,0.742-1.343,1.131C648.59,649.314,647.54,649.75,646.92,650.59z"></path> <path fill="#F47947" d="M620.324,631.955c0.551,0.645,1.291,1.307,1.395,2.137c0.084,0.582-0.062,1.256-0.051,1.838 c0.02,0.939,0.081,2.812,1.345,2.929c0.741,0.063,1.785-1.488,2.154-2.105c0.565-0.957,0.615-2.149,1.271-3.125 c0.828-1.219,2.29-3.057,3.56-1.432c0.795,1.043,1.409,2.729,2.572,3.416c1.35,0.795,1.671-1.914,2.366-2.761 c0.47,0.404,0.181,1.505,0.327,2.107c0.208,1.051,1.024,1.893,1.449,2.861c0.412,0.916,0.846,1.828,1.18,2.787 c0.239,0.641,0.335,1.879,1.02,2.198c0.644,0.302,1.745-0.319,2.323,0.187c0.747,0.664-0.283,1.254-0.883,1.461 c-1.601,0.574-2.753,1.779-1.609,3.346c0.98,1.312,0.722,2.66-0.175,3.939c-0.508,0.699-1.865,1.807-1.583,2.75 c0.311,1.123,2.102,0.572,1.953,1.803c-0.078,0.736-0.691,0.867-1.303,1.045c-0.642,0.211-1.026,0.506-1.513,1.041 c-0.369,0.398-0.6,0.914-1.123,0.262c-0.323-0.401-0.178-1.061-0.188-1.545c-1.137,0.129-2.292,0.279-3.396,0.438 c-0.913,0.125-1.553,0.201-2.29,0.77c-0.528,0.422-1.015,0.761-1.651,0.955l1.952,6.027c0.837,0.272,1.688,0.383,2.303-0.121 c0.505-0.424,0.68-1.885,1.454-1.787c0.592,0.066,0.787,1.447,1.161,1.883c0.442,0.552,1.076,0.687,1.77,0.402 c0.761-0.301,1.786-0.826,2.461-1.303c1.019-0.711,1.8-1.765,2.789-2.527c0.696-0.522,1.732-0.734,2.276-1.467 c0.805-1.103,0.517-3.264,0.429-4.558c-0.066-0.731-0.177-1.571-0.043-2.291c0.146-0.737,0.429-1.459,0.63-2.194 c0.054-0.252,0.125-0.506,0.166-0.758c0.132-0.832,0.101-1.908,0.474-2.668c0.415-0.871,1.227-1.535,2.008-2.064 c1.152-0.762,2.771-2.115,1.623-3.715c-0.66-0.914-2.421-0.48-2.96-1.416c-0.224-0.418-0.059-2.06,0.334-2.332 c0.565-0.369,1.01,0.211,1.12-0.775c0.075-0.664-0.449-1.219-0.415-1.83c0.096-1.371,2.692,0.269,2.886-1.332 c0.23-1.896-2.35-0.94-3.046-1.45c-0.427-0.308-0.694-0.933-1.034-1.312c-0.507-0.551-0.889-1.078-1.181-1.781 c-0.169-0.408-0.264-0.864-0.474-1.268c-0.16-0.299-0.504-0.398-0.41-0.795c0.137-0.658,1.805-0.474,2.397-0.629 c1.209-0.293,1.696-1.207,2.107-2.308c0.312-0.805,0.612-1.387-0.066-2.108c-0.568-0.584-1.277-0.922-2.082-0.974 c-0.896-0.047-1.192-0.024-1.735,0.603c-0.351,0.401-0.769,0.906-1.271,0.504c-0.573-0.484-0.332-1.693-0.393-2.34 c-0.062-0.562-0.294-1.045-0.566-1.508c-0.134-0.238-0.521-0.644-0.57-0.892c-0.278-1.776,2.857,0.105,3.363,0.207 c0.557,0.121,1.295,0.283,1.553-0.332c0.224-0.498,0.002-1.518-0.189-1.981c-0.269-0.675-0.758-1.13-1.164-1.722 c-0.168-0.268-0.235-0.52-0.488-0.715c-0.293-0.207-0.895-0.147-0.99-0.512c-0.268-0.812,0.996-0.707,1.337-1.133 c0.598-0.734-0.062-1.732-0.521-2.33c-0.717-0.978-1.187-1.929-2.282-2.394c-0.952-0.406-1.471-0.795-1.999-1.729 c-0.15-0.277-0.759-1.121-0.757-1.402c0.04-0.389,0.628-0.578,0.929-0.746c0.472-0.27,1.638-0.455,1.943-0.879 c0.43-0.588-0.215-1.268-0.605-1.654c-0.47-0.452-0.729-0.916-1.119-1.405c-0.448-0.578-1.071-1.025-1.483-1.656 c-0.447-0.678-0.625-1.646-0.683-2.49c-0.084-1.465-0.017-2.805-0.995-3.99c-0.8,0.455-1.122,1.482-1.178,2.345 c-0.013,0.225-0.099,0.772-0.021,0.979c0.101,0.234,0.478,0.353,0.56,0.568c0.282,0.819-1.288,2.418-1.896,2.891 c-0.505,0.394-1.491,0.621-2.138,0.678c-1.155,0.123-1.597-1.002-2.029-1.866c-0.573-1.16-1.042-2.148-2.081-2.982 c-0.611-0.498-1.281-1.369-2.151-1.205c-0.726,0.137-1.51,0.865-1.897,1.521c-0.457,0.813-0.196,1.125,0.302,1.856 c0.566,0.81,0.971,1.654,1.37,2.564c0.427,0.944,0.561,1.979,0.951,2.965c0.341,0.885,0.712,1.434,0.731,2.387 c0.027,1.267-0.65,1.937-1.227,2.98c-0.571,1.057-0.667,2.867-1.776,3.514c-0.391,0.236-1.415,0.223-1.509,0.818 c-0.116,0.733,1.319,0.512,1.709,1.006c0.438,0.567,0.144,1.348-0.327,1.842c-0.549,0.621-1.228,0.939-1.562,1.764 c-0.306,0.771-0.438,1.681-0.673,2.484c-0.524,1.766-1.229,3.264-1.935,4.953c-0.755,1.762,1.586,1.879,1.6,3.395 c-0.011,0.791-0.653,1.205-1.377,1.394c-0.25,0.084-0.597,0.11-0.89,0.075c-0.609-0.061-0.568-0.456-0.93-0.581 c-0.788-0.271-0.817,0.42-1.021,0.981c-0.074,0.199-0.176,0.404-0.268,0.607l0.499,1.545 C619.081,631.166,619.704,631.201,620.324,631.955z"></path> <path fill="#F47947" d="M626.508,648.643c0.639-0.086,1.018-0.221,1.531-0.598c0.427-0.314,0.979-0.479,1.38-0.791 c0.366-0.266,0.406-0.678,0.882-0.359c0.582,0.394,0.448,1.261,0.926,1.664c0.47,0.402,1.052-0.021,1.5-0.246 c0.763-0.36,1.668-0.469,2.399-0.934c0.642-0.396,1.025-0.828,0.758-1.541c-0.223-0.594-0.438-1.199-0.698-1.814 c-0.272-0.702-0.558-1.396-0.912-2.053c-0.318-0.59-0.775-1.024-1.112-1.602c-0.234-0.412-0.641-1.658-1.255-1.32 c-0.496,0.281-0.491,1.203-0.496,1.66c-0.032,1.207,0.747,3.24-0.492,4.094c-0.75,0.504-1.285,0-1.604-0.692 c-0.146-0.347-0.188-0.709-0.302-1.054c-0.117-0.35-0.34-0.524-0.55-0.838c-0.18-0.252-0.225-0.656-0.309-0.949 c-0.211-0.754-0.46-1.479-0.977-2.08c-0.587-0.657-0.801-0.098-1.109,0.521c-0.312,0.664-0.784,0.848-1.207,1.375 c-0.456,0.572-0.92,1.289-1.146,1.992c-0.213,0.672-0.496,1.035-1.056,1.312l1.399,4.322c0.123-0.035,0.27-0.057,0.469-0.053 C625.183,648.668,625.87,648.729,626.508,648.643z"></path> <path fill="#F47947" d="M619.668,635.154l0.527,1.629c0.071-0.221,0.13-0.439,0.143-0.664 C620.375,635.574,620.077,635.297,619.668,635.154z"></path> <path fill="#33AAB8" d="M596.7,555.834c4.62-5.197,2.889-19.637,0.578-29.451c-2.312-9.815-7.507-25.988-13.859-26.565 c-6.354-0.578-18.479,19.635-26.563,16.17c-3.096-1.326-2.89-8.66-5.197-11.55c-2.309-2.889-3.465,3.466-5.197,2.31 c-1.732-1.154-19.634-25.408-22.523-31.185c-2.886-5.776,0-15.592-5.771-24.256c-5.776-8.661-6.354-1.729-14.438-6.35 c-8.604-4.915,0.494-9.267-7.506-11.55c-4.042-1.153-25.988-1.733-25.988-1.733l-0.854,0.311 c-0.113,3.113-0.162,9.106,0.122,10.75c0.48,2.65,1.597,4.766,1.56,7.566c-0.04,3.162-1.569,5.46-3.258,8.123 c-1.774,2.787-2.714,5.98-4.104,8.971c-1.109,2.429-3.107,5.062-3.605,7.701c-0.277,1.457-0.123,3.394,0.334,4.748 c0.502,1.555,1.492,2.857,2.195,4.328c0.427,0.865,1.772,3.887,0.844,4.711c-1.647,1.437-3.147-2.219-3.266-3.152 c-0.195-1.586-0.21-2.922-0.896-4.389c-0.352-0.719-1.248-3.215-2.25-3.033c-0.733,0.134-1.643,2.525-2.178,3.123 c-2.13,2.354-5.643,4.228-8.805,4.388c-2.913,0.17-7.393,0.616-9.993-0.668c-1.078-0.533-2.249-1.312-3.66-0.604 c-1.144,0.578-1.208,2.1-1.901,3.049c-0.893,1.24-2.162,2.064-2.971,3.4c-0.986,1.594-1.277,2.908-1.492,4.752 c-0.453,4.104-1.993,7.354-4.26,10.873c-1.996,3.084-3.898,6.311-6.847,8.621c-2.992,2.336-6.117,4.172-9.286,6.211 c-2.406,1.569-5.68,3.147-6.673,5.903c-0.867,2.435-1.117,4.962,1.047,6.798c1.131,0.973,2.534,1.678,3.743,2.616 c2.675,2.066,4.814,2.992,5.283,6.595c0.338,2.657-0.641,5.553-3.846,4.342c-2.373-0.887-1.542-3.062-1.773-4.984 c-0.218-1.774-1.604-4.25-3.771-3.881c-0.326,1.209,1.028,2.258,1.541,3.242c0.563,1.08,0.897,2.432,0.76,3.727 c-0.123,1.369-0.525,1.984,0.25,3.24c0.581,0.965,1.538,2.129,2.653,2.455c2.229,0.643,4.571-1.92,6.155-3.174 c1.146-0.916,2.673-1.701,3.584-2.914c0.826-1.086,1.271-2.342,2.139-3.398c0.444-0.535,0.711-1.123,1.436-1.08 c1.06,1.906-0.689,3.263-1.323,4.935c-0.143,0.377-0.68,1.893-0.179,2.244c0.778,0.508,1.164-1.32,1.411-1.713 c1.214-1.933,2.467-1.632,4.293-2.345c1.766-0.676,1.648-3.024,3.321-3.744c0.074,1.535-0.897,2.854-0.717,4.201 c0.002-0.231,1.542,0.498,1.714,0.979c0.176,0.502-0.07,1.479-0.461,1.834c-0.907,0.78-2.567,0.033-3.563-0.144 c-0.79-0.129-1.283-0.489-1.585,0.592c-0.53,1.896,2.087,1.769,2.675,2.875c0.604,1.128-0.754,2.437-1.893,2.378 c-1.376-0.07-1.421-1.714-2.396-2.398c-1.16-0.809-2.05,0.213-1.533,1.494c0.5,1.195,2.251,1.426,0.486,2.125 c-2.076,0.84-2.903-0.978-4.312-2.029c-1.84-1.375-4.18-0.322-6.005,1.021c-1.514,1.127-3.15,2.479-1.05,3.815 c2.031,1.293,3.369,1.045,3.194,3.744c-2.504,0.568-2.395-0.549-4.04-1.74c-1.645-1.174-0.67,0.576-1.746,1.302 c-1.721,1.141-1.1-1.613-2.093-1.902c-0.799-0.234-2.196,1.984-2.79,2.51c-2.039,1.83-4.36,3.73-5.854,6 c-1.101,1.691-0.853,1.859,0.706,2.584c0.676,0.328,3.08,1.951,1.786,2.992c-0.803,0.644-2.045-0.938-2.988-0.572 c-1.117,0.441-0.986,2.287-0.862,3.226c0.148,1.217,0.991,1.856-0.495,2.268c-1.536,0.418-2.158-0.822-2.979-1.736 c-1.043-1.176-1.946-1.309-3.247-0.018c-0.645,0.645-1.075,1.854-1.02,2.793c0.188,2.715,4.225,2.123,3.748,5 c0-0.035-3.606-1.365-4.062-1.387c-1.266-0.056-1.81,0.129-2.667,1.192c-1.637,2.002-2.018,4.615-3.438,6.73 c-1.511,2.233-1.941,4.795-3.093,7.209c-1.134,2.356-2.438,4.676-3.35,7.131c-0.768,2.109-0.721,4.295-0.749,6.516 c-0.033,2.41-0.125,4.839-0.099,7.261c0.051,4.655,2.167,9.168,3.878,13.385c0.983,2.424,1.899,4.725,3.039,7.012 c0.612,1.215,0.729,2.094,0.712,3.445c-0.012,0.955-0.227,2.123,0.794,2.547c0.061-1.467,0.342-2.367,1.989-1.486 c1.205,0.636,2.312,1.666,3.577,2.295c1.333,0.646,2.456,1.652,3.773,2.289c1.849,0.877,3.921,0.974,5.837,1.412 c7.104,1.627,14.646,2.191,19.427,8.428c1.295,1.714,3.217,5.455,5.431,6.037c0.063-3.426,5.105-2.059,4.567,0.215 c-0.247,1.021-2.528,0.994-2.003,2.396c0.615,1.635,2.946-0.176,3.934-0.076c0.276,1.982-1.63,2.209-2.01,3.656 c-0.345,1.322,1.066,2.029,0.781,3.395c-1.356,0.3-3.646,0.382-3.979,2.099c-0.313,1.615,1.486,3.412,2.646,4.297 c1.524,1.156,3.544,1.426,5.534,1.34c0.861-0.033,2.173-0.951,2.826-0.815c0.831,0.176,1.003,3.493,2.162,4.334 c1.45,1.053,3.015,1.295,2.812,3.516c-1.573,0.373-1.896-1.805-3.55-1.055c-0.347,0.178-0.423,0.692-0.959,0.877 c-0.728,0.272-1.894-0.105-2.553-0.312c-1.311-0.416-2.366-1.262-3.669-1.711c-1.646-0.58-3.632-0.752-5.343-0.932 c-0.754-0.088-1.533,0.041-2.297-0.058c-0.334-0.039-1.143-0.116-1.434-0.328c-0.356-0.276-0.072-0.965-0.346-1.155 c-0.497-0.328-1.372-0.381-1.917-0.113c-0.809,0.402-0.408,0.881-0.889,1.365c-0.952,0.983-2.263,0.504-3.56,0.969 c-1.333,0.48-2.906,1.527-3.857,2.582c-0.934,1.057-1.212,1.914-0.594,3.188c0.303,0.598,0.831,1.032,0.978,1.709 c0.146,0.674-0.287,1.368-0.184,1.983c0.265,1.555,1.478,1.637,2.809,1.889c2.078,0.38,3.912,0.294,5.706,1.453 c1.297,0.847,2.019,2.23,3.316,3.021c1.655,1.004,3.529,1.278,5.422,1.383c5.216,0.268,10.299-0.139,15.438-0.828 c3.208-0.432,5.913-1.764,8.981-2.641c3.169-0.937,6.443-1.09,9.686-1.613c4.523-0.725,9.099-1.18,13.611-1.979 c2.014-0.369,3.939-1.05,5.954-0.988c2.314,0.051,4.61,0.207,6.904-0.072c2.673-0.336,5.297-0.865,7.938-1.295 c2.978-0.471,6.318-1.225,9.319-1.021c0.354,3.688,3.981-0.316,3.898-2.521c-0.054-1.205-0.425-3.053-0.942-4.152 c-0.736-1.62-1.848-1.565-3.492-1.588c-1.806-0.024-4.311,0.39-6.033-0.08c-2.864-0.778,2.4-1.09,3.314-1.075 c3.543,0.047,6.662-0.103,9.359-2.457c2.824-2.478,6.695,0.362,9.635,1.746c1.765,0.813,3.492,1.786,5.211,2.711 c1.135,0.594,2.138,1.524,3.536,1.33c0.041-0.722,0.037-1.496,0.071-2.238c2.079-0.349,3.025,3.08,4.91,0.445 c1.746-2.423-0.528-2.97-1.64-4.81c-0.34-0.563-1.071-2.381-0.356-3.002c1.219-1.084,1.612,1.176,2.07,1.615 c1.09,0.977,2.19,0.209,3.079-0.66c0.963-0.941,1.36-1.271,2.655-1.572c0.328-1.305-1.525-1.647-1.492-2.817 c2.7-0.652,2.05,4.498,5.623,2.321c0.944-0.582,1.777-2.008,2.995-1.666c1.466,0.414,0.751,2.826,1.331,4.021 c1.08,2.235,4.609,3.565,2.741,6.776c-0.606,1.078-1.927,1.24-3.095,0.996c-1.58-0.352-1.76-1.637-2.938-2.521 c-0.769-0.578-2.748-1.301-3.269,0.022c-0.733,1.783,2.446,2.838,3.543,3.32c1.481,0.637,2.93,1.105,4.059,2.289 c0.874,0.9,1.411,2.008,2.328,2.926c2.206,2.215,5.643-0.914,8.136-1.916c3.461-1.381,7.029-1.705,10.522-2.967 c2.156-0.797,5.753-1.334,6.044-3.816c0.212-1.731-0.629-3.188-1.074-4.801c-0.525-1.914-1.213-3.752-1.958-5.615 c-1.448-3.573-2.188-7.37-3.511-10.909c-0.872-2.365-2.118-4.584-2.81-7.011c-0.526-1.836-0.112-4.397-1.428-5.932 c-0.974-1.143-3.231-0.934-4.676-0.934c-2.378-0.031-4.844-0.287-7.197-0.097c-1.362,0.097-2.552,1.463-3.702,1.345 c-1.463-0.105-1.701-1.675-0.909-2.716c0.848-1.131,2.637-1.481,3.764-2.235c1.269-0.863,2.316-2.056,3.78-2.642 c1.271-0.516,2.562-0.36,3.98-0.344c3.779,0.051,1.742-2.301,0.479-4.139c-1.534-2.277-2.562-4.771-4.144-7.082 c-1.712-2.5-3.22-5.215-4.628-7.904c-0.665-1.274-1.379-2.352,0.085-3.123c1.378-0.729,2.997-0.147,3.851,1.01 c0.764,1.031,0.647,2.457,2.385,2.031c1.639-0.403,1.841-1.848,1.86-3.209c-0.005-1.084-0.541-2.812-0.026-3.812 c0.916-1.754,1.606,0.021,2.891,0.014c1.085-0.012,2.229-3.156,3.126-3.92c0.688-0.594,1.166-1.666,1.938-2.09 c0.129-0.07,0.771,0.922,1.352,0.584c0.391-0.219,0.373-1.492,0.456-1.879c0.415-2.035,1.417-3.728,2.92-5.203 c1.482-1.479,1.562-0.146,3.177,0.426c1.528,0.541,1.893-0.994,1.428-2.361c-0.372-1.106-1.871-1.729-2.639-2.627 c-0.739-0.862-1.454-2.131-1.812-3.235c1.811,1.312,3.392,2.696,5.042,4.312c0.425,0.426,2.298,2.527,2.789,2.42 c0.571-0.121,1.185-2.283,1.725-2.791c1.293-1.268,5.263-2.074,4.915-4.34c-0.255-1.635-2.191-2.879-3.235-3.996 c-1.41-1.482-2.351-2.613-3.159-4.545c-0.502-1.223-1.569-2.973-1.317-4.359c1.525-0.276,3.339,1.781,4.102,2.871 c0.497,0.715,0.863,1.699,1.783,1.832c0.722,0.099,1.29-0.5,1.88-0.852c1.404-0.859,2.476-1.58,2.421-3.367 c-0.05-1.439-1.235-2.91-1.819-4.254c1.083,0,2.562,2.869,2.98,3.811c0.649,1.438-0.024,3.09,0.773,4.549 c0.578,1.064,0.732,1.035,1.585,0.392c0.799-0.592,1.269-0.738,2.287-0.918c0.861-0.152,2.026-0.422,2.577-1.172 c0.606-0.816,0.504-2.314,0.518-3.306c0.013-0.903-0.17-1.817-0.057-2.723c0.104-0.9,0.586-1.402,0.538-2.324 c-0.136-1.922-1.271-4.682-2.812-5.91c-0.859-0.682-3.843-1.547-3.513-3.11c0.284-0.017,6.477,4.037,8.041,6.149 c0.78,1.033,1.121,2.052,2.018,2.854l-0.812-2.508C599.589,573.158,592.08,561.031,596.7,555.834z"></path> <path fill="#F47947" d="M603.506,683.691c-0.968,0.293-1.889,0.854-2.747,1.473l4.689-1.531 C604.835,683.502,604.201,683.477,603.506,683.691z"></path> <path fill="#F47947" d="M627.349,659.311c-1.399,0.365-3.091,0.64-3.518,2.234c-0.57,2.1,2.17,2.482,3.465,2.896 c0.552,0.174,1.334,0.582,2.13,0.842l-1.952-6.027C627.428,659.271,627.396,659.299,627.349,659.311z"></path> <path fill="#F47947" d="M618.097,630.717c0.056,0.029,0.103,0.043,0.155,0.068l-0.499-1.545 C617.502,629.793,617.338,630.33,618.097,630.717z"></path> <path fill="#F47947" d="M622.431,644.506c-0.346,0.146-1.039,0.449-0.804,0.98c0.081,0.219,0.41,0.188,0.536,0.317 c0.229,0.228,0.193,0.449,0.188,0.775c0.008,0.707-0.736,3.51,0.79,2.672c0.433-0.238,0.58-0.447,0.915-0.539l-1.398-4.322 C622.583,644.43,622.519,644.471,622.431,644.506z"></path> </g> <g> <path fill="#FFFFFF" d="M203.028,662.215c-2.224,0-3.679-0.562-5.071-1.955l1.081-1.08c1.226,1.228,2.369,1.621,4.032,1.621 c2.161,0,3.491-1.018,3.491-2.744c0-0.768-0.229-1.434-0.707-1.85c-0.478-0.414-0.852-0.539-1.933-0.705l-1.725-0.271 c-1.164-0.186-2.078-0.561-2.722-1.12c-0.749-0.666-1.123-1.58-1.123-2.765c0-2.516,1.808-4.178,4.739-4.178 c1.891,0,3.138,0.479,4.406,1.621l-1.019,1.018c-0.914-0.83-1.891-1.268-3.45-1.268c-1.975,0-3.118,1.102-3.118,2.744 c0,0.727,0.208,1.309,0.665,1.703c0.458,0.395,1.227,0.686,1.995,0.811l1.621,0.25c1.393,0.207,2.079,0.498,2.702,1.039 c0.81,0.686,1.247,1.703,1.247,2.93C208.14,660.613,206.104,662.215,203.028,662.215z"></path> <path fill="#FFFFFF" d="M214.046,662.09c-1.746,0-2.619-1.227-2.619-2.744v-6.274h-1.288v-1.146h1.288v-3.199h1.497v3.199h2.182 v1.146h-2.182v6.233c0,0.937,0.437,1.496,1.393,1.496h0.79v1.289H214.046L214.046,662.09z"></path> <path fill="#FFFFFF" d="M223.711,662.09v-0.977c-0.832,0.83-1.58,1.102-2.951,1.102c-1.414,0-2.245-0.271-2.889-0.936 c-0.499-0.5-0.769-1.269-0.769-2.078c0-1.787,1.247-2.951,3.533-2.951h3.076v-0.977c0-1.498-0.749-2.246-2.619-2.246 c-1.31,0-1.975,0.312-2.577,1.164l-1.019-0.937c0.915-1.184,1.954-1.516,3.616-1.516c2.743,0,4.094,1.184,4.094,3.408v6.94h-1.495 V662.09z M223.711,657.371h-2.868c-1.538,0-2.286,0.625-2.286,1.809c0,1.187,0.728,1.746,2.349,1.746 c0.873,0,1.642-0.062,2.286-0.686c0.354-0.334,0.52-0.914,0.52-1.769L223.711,657.371L223.711,657.371z"></path> <path fill="#FFFFFF" d="M231.715,662.09c-1.746,0-2.619-1.227-2.619-2.744v-6.274h-1.288v-1.146h1.288v-3.199h1.497v3.199h2.182 v1.146h-2.182v6.233c0,0.937,0.437,1.496,1.393,1.496h0.79v1.289H231.715L231.715,662.09z"></path> <path fill="#FFFFFF" d="M236.517,657.371c0,2.246,1.06,3.533,3.013,3.533c1.185,0,1.871-0.354,2.681-1.164l1.019,0.895 c-1.04,1.039-1.995,1.58-3.741,1.58c-2.702,0-4.468-1.621-4.468-5.238c0-3.305,1.601-5.235,4.198-5.235 c2.64,0,4.198,1.912,4.198,4.944v0.687L236.517,657.371L236.517,657.371z M241.609,654.545c-0.395-0.936-1.31-1.537-2.39-1.537 c-1.08,0-1.995,0.603-2.39,1.537c-0.229,0.561-0.27,0.873-0.312,1.705h5.403C241.879,655.418,241.837,655.105,241.609,654.545z"></path> <path fill="#FFFFFF" d="M253.147,662.09v-6.297c0-1.809-0.977-2.723-2.515-2.723c-1.538,0-2.536,0.936-2.536,2.723v6.297H246.6 v-10.225h1.496v1.121c0.728-0.83,1.725-1.246,2.868-1.246c1.102,0,1.995,0.332,2.619,0.955c0.727,0.707,1.06,1.662,1.06,2.848 v6.547H253.147L253.147,662.09z"></path> <path fill="#FFFFFF" d="M263.73,662.09v-14.797h1.58v14.797H263.73z"></path> <path fill="#FFFFFF" d="M272.544,662.215c-1.725,0-3.076-0.396-4.198-1.477l0.998-0.998c0.811,0.854,1.912,1.186,3.18,1.186 c1.684,0,2.723-0.604,2.723-1.809c0-0.894-0.52-1.394-1.704-1.496l-1.684-0.146c-1.995-0.168-3.055-1.061-3.055-2.743 c0-1.871,1.579-2.992,3.761-2.992c1.455,0,2.764,0.354,3.679,1.102l-0.977,0.978c-0.728-0.562-1.663-0.812-2.723-0.812 c-1.497,0-2.286,0.646-2.286,1.685c0,0.873,0.499,1.393,1.787,1.495l1.642,0.146c1.787,0.166,3.013,0.854,3.013,2.764 C276.7,661.07,275.017,662.215,272.544,662.215z"></path> <path fill="#FFFFFF" d="M282.19,662.09c-1.788,0-2.598-1.164-2.598-2.723v-12.074h1.496v12.012c0,0.998,0.333,1.496,1.372,1.496 h0.811v1.289H282.19z"></path> <path fill="#FFFFFF" d="M291.607,662.09v-0.977c-0.832,0.83-1.58,1.102-2.951,1.102c-1.414,0-2.245-0.271-2.889-0.936 c-0.499-0.5-0.769-1.269-0.769-2.078c0-1.787,1.247-2.951,3.533-2.951h3.076v-0.977c0-1.498-0.749-2.246-2.619-2.246 c-1.31,0-1.975,0.312-2.577,1.164l-1.019-0.937c0.915-1.184,1.954-1.516,3.616-1.516c2.743,0,4.094,1.184,4.094,3.408v6.94h-1.495 V662.09z M291.607,657.371h-2.868c-1.538,0-2.286,0.625-2.286,1.809c0,1.187,0.728,1.746,2.349,1.746 c0.873,0,1.642-0.062,2.286-0.686c0.354-0.334,0.52-0.914,0.52-1.769L291.607,657.371L291.607,657.371z"></path> <path fill="#FFFFFF" d="M303.29,662.09v-6.297c0-1.809-0.977-2.723-2.515-2.723s-2.536,0.936-2.536,2.723v6.297h-1.496v-10.225 h1.496v1.121c0.728-0.83,1.725-1.246,2.868-1.246c1.102,0,1.995,0.332,2.619,0.955c0.727,0.707,1.06,1.662,1.06,2.848v6.547 H303.29L303.29,662.09z"></path> <path fill="#FFFFFF" d="M314.537,662.09v-1.227c-0.832,1.08-1.787,1.352-2.91,1.352c-1.039,0-1.954-0.354-2.494-0.895 c-1.039-1.039-1.247-2.744-1.247-4.345c0-1.6,0.208-3.305,1.247-4.344c0.54-0.539,1.455-0.893,2.494-0.893 c1.123,0,2.058,0.248,2.889,1.309v-5.756h1.497v14.797L314.537,662.09L314.537,662.09z M311.959,653.07 c-2.224,0-2.577,1.912-2.577,3.905c0,1.996,0.354,3.908,2.577,3.908s2.556-1.912,2.556-3.908 C314.516,654.982,314.183,653.07,311.959,653.07z"></path> </g> <g> <path fill="#FFFFFF" d="M451.854,581.529h-5.757v-14.797h5.57c2.576,0,4.363,1.477,4.363,3.948c0,1.56-0.936,2.785-2.183,3.242 c1.413,0.521,2.41,1.746,2.41,3.512C456.26,580.117,454.473,581.529,451.854,581.529z M451.543,568.146h-3.866v5.133h3.866 c1.642,0,2.909-0.812,2.909-2.578C454.452,568.936,453.185,568.146,451.543,568.146z M451.709,574.691h-4.032v5.426h4.032 c1.828,0,2.972-1.062,2.972-2.724C454.681,575.732,453.537,574.691,451.709,574.691z"></path> <path fill="#FFFFFF" d="M465.43,573.258c-0.561-0.561-0.977-0.748-1.767-0.748c-1.496,0-2.452,1.187-2.452,2.744v6.275h-1.496 v-10.226h1.496v1.246c0.562-0.852,1.684-1.371,2.868-1.371c0.977,0,1.725,0.229,2.452,0.957L465.43,573.258z"></path> <path fill="#FFFFFF" d="M474.323,580.49c-0.706,0.707-1.685,1.164-2.931,1.164s-2.225-0.457-2.931-1.164 c-1.039-1.06-1.247-2.494-1.247-4.072c0-1.58,0.208-3.014,1.247-4.074c0.706-0.707,1.685-1.164,2.931-1.164 s2.225,0.457,2.931,1.164c1.039,1.062,1.247,2.494,1.247,4.074C475.57,577.996,475.362,579.432,474.323,580.49z M473.264,573.258 c-0.479-0.477-1.144-0.748-1.87-0.748c-0.728,0-1.371,0.271-1.85,0.748c-0.749,0.748-0.832,2.017-0.832,3.16 c0,1.143,0.083,2.41,0.832,3.158c0.479,0.479,1.122,0.748,1.85,0.748s1.393-0.271,1.87-0.748c0.748-0.748,0.812-2.017,0.812-3.158 C474.074,575.273,474.012,574.006,473.264,573.258z"></path> <path fill="#FFFFFF" d="M485.342,580.49c-0.706,0.707-1.684,1.164-2.93,1.164c-1.247,0-2.225-0.457-2.931-1.164 c-1.039-1.06-1.247-2.494-1.247-4.072c0-1.58,0.208-3.014,1.247-4.074c0.706-0.707,1.684-1.164,2.931-1.164 c1.246,0,2.224,0.457,2.93,1.164c1.039,1.062,1.247,2.494,1.247,4.074C486.589,577.996,486.381,579.432,485.342,580.49z M484.282,573.258c-0.479-0.477-1.145-0.748-1.87-0.748c-0.729,0-1.372,0.271-1.852,0.748c-0.747,0.748-0.83,2.017-0.83,3.16 c0,1.143,0.083,2.41,0.83,3.158c0.479,0.479,1.123,0.748,1.852,0.748c0.727,0,1.392-0.271,1.87-0.748 c0.748-0.748,0.811-2.017,0.811-3.158C485.093,575.273,485.03,574.006,484.282,573.258z"></path> <path fill="#FFFFFF" d="M496.526,581.529l-3.241-5.236l-1.995,2.285v2.951h-1.497v-14.797h1.497v9.893l4.613-5.32h1.87 l-3.472,3.906l4.073,6.318H496.526L496.526,581.529z"></path> <path fill="#FFFFFF" d="M503.492,581.529c-1.787,0-2.599-1.164-2.599-2.724v-12.073h1.496v12.012c0,0.998,0.333,1.498,1.372,1.498 h0.812v1.287H503.492z"></path> <path fill="#FFFFFF" d="M509.164,584.002c-0.208,0.562-0.438,0.936-0.729,1.207c-0.541,0.52-1.268,0.705-1.994,0.705h-0.646v-1.33 h0.457c1.039,0,1.353-0.332,1.685-1.268l0.728-1.994l-3.679-10.019h1.621l2.806,8.209l2.785-8.209h1.621L509.164,584.002z"></path> <path fill="#FFFFFF" d="M522.467,581.529v-6.297c0-1.81-0.977-2.724-2.515-2.724s-2.535,0.937-2.535,2.724v6.297h-1.497v-10.226 h1.497v1.123c0.727-0.832,1.725-1.248,2.867-1.248c1.102,0,1.995,0.332,2.619,0.957c0.728,0.705,1.06,1.662,1.06,2.847v6.547 H522.467z"></path> </g> <g> <path fill="#FFFFFF" d="M444.035,414.072l-9.517-5.987l5.388,8.178l-0.721,1.145l-9.735-1.266l9.516,5.987l-0.841,1.337 l-12.524-7.88l0.842-1.337l11.45,1.508l-6.382-9.563l0.841-1.337l12.524,7.88L444.035,414.072z"></path> <path fill="#FFFFFF" d="M450.103,404.428l-0.825-0.52c0.261,1.146,0.092,1.923-0.64,3.084c-0.753,1.196-1.425,1.756-2.331,1.947 c-0.688,0.155-1.481-0.024-2.168-0.456c-1.513-0.952-1.834-2.627-0.615-4.562l1.638-2.604l-0.827-0.521 c-1.266-0.797-2.299-0.562-3.295,1.021c-0.697,1.106-0.787,1.837-0.387,2.801l-1.335,0.363c-0.516-1.404-0.242-2.461,0.643-3.868 c1.461-2.322,3.184-2.834,5.065-1.65l5.875,3.697L450.103,404.428z M446.109,401.915l-1.527,2.427 c-0.819,1.302-0.689,2.269,0.312,2.898c1.003,0.631,1.864,0.312,2.729-1.06c0.465-0.738,0.821-1.423,0.638-2.3 c-0.094-0.477-0.497-0.926-1.219-1.38L446.109,401.915z"></path> <path fill="#FFFFFF" d="M456.324,394.539l-5.329-3.354c-1.531-0.963-2.825-0.623-3.645,0.679 c-0.818,1.301-0.559,2.644,0.954,3.596l5.329,3.354l-0.797,1.267l-8.654-5.445l0.798-1.267l0.949,0.598 c-0.314-1.058-0.137-2.125,0.473-3.091c0.587-0.933,1.344-1.512,2.204-1.707c0.984-0.24,1.971-0.013,2.974,0.618l5.541,3.486 L456.324,394.539z"></path> <path fill="#FFFFFF" d="M462.546,384.65l-5.348-3.365c-1.514-0.952-2.795-0.629-3.614,0.672s-0.569,2.662,0.925,3.603l5.349,3.364 l-0.798,1.267l-12.523-7.88l0.797-1.267l4.82,3.032c-0.323-1.087-0.138-2.124,0.472-3.092c1.229-1.952,3.208-2.328,5.16-1.099 l5.559,3.498L462.546,384.65z"></path> <path fill="#FFFFFF" d="M468.369,375.394l-0.826-0.52c0.261,1.146,0.092,1.923-0.639,3.084c-0.753,1.196-1.426,1.756-2.331,1.947 c-0.688,0.156-1.482-0.024-2.168-0.456c-1.514-0.952-1.834-2.627-0.616-4.562l1.638-2.604l-0.827-0.52 c-1.266-0.797-2.299-0.562-3.295,1.021c-0.696,1.108-0.786,1.838-0.387,2.802l-1.334,0.363c-0.516-1.405-0.243-2.461,0.643-3.868 c1.461-2.322,3.184-2.835,5.064-1.65l5.875,3.696L468.369,375.394z M464.376,372.881l-1.527,2.428 c-0.817,1.302-0.688,2.268,0.314,2.898c1.002,0.631,1.863,0.313,2.727-1.059c0.466-0.739,0.821-1.423,0.639-2.3 c-0.095-0.476-0.497-0.926-1.22-1.38L464.376,372.881z"></path> <path fill="#FFFFFF" d="M472.632,368.619c-0.93,1.478-2.433,1.563-3.716,0.756l-5.312-3.342l-0.686,1.09l-0.968-0.608l0.686-1.091 l-2.709-1.705l0.797-1.267l2.709,1.705l1.162-1.847l0.968,0.608l-1.161,1.847l5.275,3.32c0.792,0.498,1.5,0.428,2.009-0.381 l0.422-0.669l1.09,0.687L472.632,368.619z"></path> <path fill="#FFFFFF" d="M476.308,362.777c-0.93,1.478-2.433,1.563-3.716,0.756l-5.312-3.342l-0.688,1.09l-0.968-0.608l0.688-1.091 l-2.71-1.705l0.798-1.267l2.709,1.705l1.162-1.847l0.968,0.608l-1.162,1.847l5.275,3.32c0.792,0.498,1.5,0.428,2.01-0.381 l0.421-0.669l1.09,0.687L476.308,362.777z"></path> <path fill="#FFFFFF" d="M481.454,354.597l-0.826-0.52c0.26,1.146,0.092,1.923-0.639,3.084c-0.753,1.196-1.426,1.755-2.331,1.947 c-0.688,0.156-1.482-0.024-2.168-0.456c-1.514-0.952-1.834-2.626-0.616-4.562l1.638-2.603l-0.827-0.52 c-1.266-0.797-2.299-0.562-3.295,1.021c-0.696,1.108-0.786,1.838-0.387,2.801l-1.335,0.364c-0.515-1.405-0.243-2.461,0.643-3.868 c1.462-2.322,3.185-2.835,5.065-1.651l5.875,3.697L481.454,354.597z M477.461,352.084l-1.527,2.428 c-0.818,1.301-0.688,2.268,0.313,2.898c1.002,0.631,1.864,0.313,2.728-1.059c0.466-0.739,0.821-1.423,0.639-2.301 c-0.095-0.476-0.497-0.926-1.22-1.38L477.461,352.084z"></path> <path fill="#FFFFFF" d="M487.676,344.708l-5.329-3.354c-1.53-0.963-2.825-0.623-3.645,0.679c-0.818,1.302-0.559,2.644,0.955,3.596 l5.329,3.354l-0.797,1.267l-8.654-5.445l0.797-1.267l0.95,0.598c-0.315-1.058-0.138-2.124,0.472-3.092 c0.587-0.932,1.344-1.512,2.204-1.707c0.984-0.24,1.971-0.012,2.974,0.618l5.541,3.487L487.676,344.708z"></path> </g> <g> <path fill="#FFFFFF" d="M617.518,465.318l-1.643-1.644c-0.894,0.687-1.995,1.039-3.18,1.039c-1.477,0-2.784-0.539-3.782-1.537 c-1.394-1.393-1.394-2.848-1.394-5.985s0-4.593,1.394-5.984c0.998-0.998,2.307-1.538,3.782-1.538c1.475,0,2.785,0.541,3.783,1.538 c1.392,1.393,1.392,2.848,1.392,5.984c0,2.825,0,4.28-1.019,5.549l1.621,1.621L617.518,465.318z M615.252,452.143 c-0.645-0.666-1.579-1.061-2.557-1.061s-1.911,0.395-2.557,1.061c-0.936,0.955-1.039,1.953-1.039,5.05 c0,3.098,0.104,4.096,1.039,5.051c0.646,0.664,1.579,1.061,2.557,1.061c0.79,0,1.497-0.25,2.1-0.707l-1.87-1.871l0.955-0.954 l1.81,1.807c0.539-0.871,0.603-2.016,0.603-4.385C616.291,454.096,616.188,453.098,615.252,452.143z"></path> <path fill="#FFFFFF" d="M627.768,464.59v-1.143c-0.728,0.832-1.745,1.268-2.889,1.268c-1.102,0-2.017-0.332-2.64-0.955 c-0.729-0.707-1.039-1.684-1.039-2.869v-6.524h1.496v6.297c0,1.809,0.956,2.723,2.494,2.723s2.557-0.936,2.557-2.723v-6.297h1.496 v10.225L627.768,464.59L627.768,464.59z"></path> <path fill="#FFFFFF" d="M633.923,459.873c0,2.244,1.061,3.533,3.014,3.533c1.186,0,1.87-0.354,2.682-1.164l1.019,0.895 c-1.039,1.039-1.995,1.578-3.741,1.578c-2.7,0-4.468-1.621-4.468-5.236c0-3.305,1.601-5.237,4.198-5.237 c2.639,0,4.197,1.912,4.197,4.946v0.687L633.923,459.873L633.923,459.873z M639.015,457.047c-0.395-0.936-1.31-1.539-2.39-1.539 c-1.081,0-1.995,0.604-2.391,1.539c-0.229,0.562-0.271,0.873-0.312,1.703h5.403C639.285,457.92,639.243,457.607,639.015,457.047z"></path> <path fill="#FFFFFF" d="M644.941,459.873c0,2.244,1.06,3.533,3.014,3.533c1.185,0,1.87-0.354,2.681-1.164l1.02,0.895 c-1.039,1.039-1.995,1.578-3.741,1.578c-2.701,0-4.468-1.621-4.468-5.236c0-3.305,1.6-5.237,4.197-5.237 c2.64,0,4.197,1.912,4.197,4.946v0.687L644.941,459.873L644.941,459.873z M650.033,457.047c-0.396-0.936-1.311-1.539-2.391-1.539 s-1.994,0.604-2.391,1.539c-0.229,0.562-0.27,0.873-0.312,1.703h5.402C650.304,457.92,650.262,457.607,650.033,457.047z"></path> <path fill="#FFFFFF" d="M661.57,464.59v-6.297c0-1.807-0.978-2.723-2.516-2.723s-2.535,0.936-2.535,2.723v6.297h-1.496v-10.225 h1.496v1.123c0.728-0.832,1.726-1.248,2.867-1.248c1.103,0,1.995,0.334,2.619,0.957c0.729,0.707,1.061,1.662,1.061,2.848v6.545 H661.57z"></path> <path fill="#FFFFFF" d="M669.929,464.715c-1.725,0-3.075-0.395-4.197-1.475l0.997-0.998c0.812,0.852,1.911,1.186,3.181,1.186 c1.683,0,2.722-0.604,2.722-1.809c0-0.896-0.52-1.394-1.704-1.496l-1.683-0.146c-1.995-0.166-3.057-1.061-3.057-2.741 c0-1.871,1.58-2.994,3.763-2.994c1.455,0,2.765,0.354,3.679,1.102l-0.977,0.978c-0.729-0.562-1.663-0.812-2.724-0.812 c-1.496,0-2.286,0.646-2.286,1.685c0,0.873,0.499,1.393,1.787,1.496l1.643,0.146c1.788,0.166,3.014,0.852,3.014,2.764 C674.085,463.572,672.401,464.715,669.929,464.715z"></path> </g> <g> <path fill="#FFFFFF" d="M556.668,254.098h-5.757v-14.797h5.569c2.576,0,4.363,1.475,4.363,3.948c0,1.559-0.935,2.785-2.182,3.242 c1.413,0.52,2.41,1.746,2.41,3.512C561.073,252.685,559.286,254.098,556.668,254.098z M556.356,240.714h-3.866v5.133h3.866 c1.642,0,2.908-0.811,2.908-2.577S557.998,240.714,556.356,240.714z M556.521,247.261h-4.031v5.424h4.031 c1.829,0,2.973-1.06,2.973-2.723S558.352,247.261,556.521,247.261z"></path> <path fill="#FFFFFF" d="M570.244,245.827c-0.562-0.561-0.979-0.748-1.768-0.748c-1.495,0-2.451,1.185-2.451,2.743v6.276h-1.497 v-10.225h1.497v1.247c0.561-0.852,1.683-1.372,2.866-1.372c0.979,0,1.727,0.229,2.453,0.956L570.244,245.827z"></path> <path fill="#FFFFFF" d="M579.137,253.059c-0.706,0.707-1.684,1.164-2.93,1.164c-1.247,0-2.225-0.457-2.931-1.164 c-1.039-1.06-1.247-2.494-1.247-4.073c0-1.58,0.208-3.014,1.247-4.074c0.706-0.707,1.684-1.164,2.931-1.164 c1.246,0,2.224,0.457,2.93,1.164c1.039,1.06,1.247,2.494,1.247,4.074C580.384,250.565,580.176,251.999,579.137,253.059z M578.077,245.827c-0.479-0.478-1.145-0.748-1.87-0.748c-0.729,0-1.372,0.27-1.851,0.748c-0.748,0.748-0.831,2.016-0.831,3.159 s0.083,2.411,0.831,3.159c0.479,0.478,1.122,0.748,1.851,0.748c0.727,0,1.392-0.27,1.87-0.748 c0.748-0.748,0.811-2.016,0.811-3.159S578.825,246.575,578.077,245.827z"></path> <path fill="#FFFFFF" d="M590.135,254.098v-6.297c0-1.808-0.977-2.723-2.515-2.723s-2.535,0.935-2.535,2.723v6.297h-1.497v-10.225 h1.497v1.123c0.728-0.832,1.725-1.247,2.867-1.247c1.102,0,1.995,0.333,2.619,0.956c0.728,0.707,1.06,1.663,1.06,2.847v6.546 H590.135z"></path> <path fill="#FFFFFF" d="M600.842,254.098l-2.452-3.969l-2.494,3.969h-1.809l3.471-5.216l-3.325-5.009h1.81l2.349,3.783 l2.308-3.783h1.808l-3.325,5.009l3.472,5.216H600.842z"></path> </g> </g> </svg> 